<?xml version="1.0" standalone="no"?>
<!DOCTYPE svg PUBLIC "-//W3C//DTD SVG 1.1//EN" "http://www.w3.org/Graphics/SVG/1.1/DTD/svg11.dtd" >
<svg xmlns="http://www.w3.org/2000/svg">
<metadata>Generated by IcoMoon</metadata>
<defs>
<font id="CarrdIcons" horiz-adv-x="1024">
<font-face units-per-em="1024" ascent="960" descent="-64" />
<missing-glyph horiz-adv-x="1024" />
<glyph unicode="&#x20;" horiz-adv-x="512" d="" />
<glyph unicode="&#xe900;" glyph-name="snapchat" horiz-adv-x="1082" d="M499.089 906.398c-70.079-10.43-121.969-35.574-164.763-80.241-61.251-64.193-75.427-119.293-66.6-258.914 1.605-23.271 2.14-43.331 1.070-44.134-4.014-4.28-33.168-0.802-52.692 6.42-19.793 6.955-21.665 7.222-36.109 4.014-12.037-2.674-17.654-5.884-26.48-14.711-9.896-9.896-11.502-12.838-11.502-22.736 0-25.142 18.723-40.656 71.683-59.377 51.088-17.921 58.577-32.364 37.715-73.020-16.851-32.899-33.168-55.636-58.042-81.847-35.574-37.715-73.822-60.45-120.63-71.952-25.142-6.42-33.701-14.443-31.294-29.154 0.802-5.35 3.745-12.571 6.42-16.316 11.77-16.048 51.355-32.364 100.837-41.994 13.374-2.407 24.876-5.617 25.945-7.222s4.547-13.108 7.488-25.945c8.561-33.701 16.048-38.515 51.89-32.899 54.296 8.827 88.267 7.222 115.815-5.617 7.488-3.477 29.154-16.583 48.145-29.422 62.857-42.796 85.324-50.821 141.226-50.821s78.37 8.023 141.226 50.821c18.991 12.838 40.656 26.213 48.414 29.691 21.932 9.896 51.355 13.108 86.128 9.094 59.111-6.687 61.518-6.687 69.008 0.802 3.477 3.477 8.023 11.77 9.628 18.19 10.43 40.923 9.361 39.052 23.271 41.192 7.222 0.802 24.607 4.547 39.052 8.292 44.668 11.235 71.148 25.678 78.37 42.796 9.094 21.398 1.338 30.759-32.899 39.852-72.753 19.258-133.203 71.952-174.392 152.461-20.863 40.656-13.374 55.099 37.715 73.020 53.762 18.991 71.683 33.701 71.683 59.111 0 20.329-26.213 40.389-52.424 40.389-4.815 0-17.384-3.208-28.087-6.955-17.921-6.42-42.796-9.896-46.273-6.154-0.802 0.802-0.267 22.469 1.338 48.145 3.208 50.284 1.873 111.538-2.941 137.483-13.374 71.952-74.893 145.506-146.575 175.464-37.981 15.782-66.869 21.398-112.874 22.469-22.736 0.535-44.936 0.267-49.482-0.267z" />
<glyph unicode="&#xe901;" glyph-name="email-alt" d="M950.857 127.999v438.857q-18.286-20.571-39.429-37.714-153.143-117.714-243.429-193.143-29.143-24.571-47.429-38.286t-49.429-27.714-58.571-14h-1.143q-27.429 0-58.571 14t-49.429 27.714-47.429 38.286q-90.286 75.429-243.429 193.143-21.143 17.143-39.429 37.714v-438.857q0-7.429 5.429-12.857t12.857-5.429h841.143q7.429 0 12.857 5.429t5.429 12.857zM950.857 728.571v14t-0.286 7.429-1.714 7.143-3.143 5.143-5.143 4.286-8 1.429h-841.143q-7.429 0-12.857-5.429t-5.429-12.857q0-96 84-162.286 110.286-86.857 229.143-181.143 3.429-2.857 20-16.857t26.286-21.429 25.429-18 28.857-15.714 24.571-5.143h1.143q11.429 0 24.571 5.143t28.857 15.714 25.429 18 26.286 21.429 20 16.857q118.857 94.286 229.143 181.143 30.857 24.571 57.429 66t26.571 75.143zM1024 749.714v-621.714q0-37.714-26.857-64.571t-64.571-26.857h-841.143q-37.714 0-64.571 26.857t-26.857 64.571v621.714q0 37.714 26.857 64.571t64.571 26.857h841.143q37.714 0 64.571-26.857t26.857-64.571z" />
<glyph unicode="&#xe902;" glyph-name="home" horiz-adv-x="951" d="M804.571 384v-274.286q0-14.857-10.857-25.714t-25.714-10.857h-219.429v219.429h-146.286v-219.429h-219.429q-14.857 0-25.714 10.857t-10.857 25.714v274.286q0 0.571 0.286 1.714t0.286 1.714l328.571 270.857 328.571-270.857q0.571-1.143 0.571-3.429zM932 423.428l-35.429-42.286q-4.571-5.143-12-6.286h-1.714q-7.429 0-12 4l-395.429 329.714-395.429-329.714q-6.857-4.571-13.714-4-7.429 1.143-12 6.286l-35.429 42.286q-4.571 5.714-4 13.429t6.286 12.286l410.857 342.286q18.286 14.857 43.429 14.857t43.429-14.857l139.429-116.571v111.429q0 8 5.143 13.143t13.143 5.143h109.714q8 0 13.143-5.143t5.143-13.143v-233.143l125.143-104q5.714-4.571 6.286-12.286t-4-13.429z" />
<glyph unicode="&#xe903;" glyph-name="location" horiz-adv-x="585" d="M438.857 585.143q0 60.571-42.857 103.429t-103.429 42.857-103.429-42.857-42.857-103.429 42.857-103.429 103.429-42.857 103.429 42.857 42.857 103.429zM585.143 585.143q0-62.286-18.857-102.286l-208-442.286q-9.143-18.857-27.143-29.714t-38.571-10.857-38.571 10.857-26.571 29.714l-208.571 442.286q-18.857 40-18.857 102.286 0 121.143 85.714 206.857t206.857 85.714 206.857-85.714 85.714-206.857z" />
<glyph unicode="&#xe904;" glyph-name="phone" horiz-adv-x="805" d="M804.571 205.714q0-15.429-5.714-40.286t-12-39.143q-12-28.571-69.714-60.571-53.714-29.143-106.286-29.143-15.429 0-30 2t-32.857 7.143-27.143 8.286-31.714 11.714-28 10.286q-56 20-100 47.429-73.143 45.143-151.143 123.143t-123.143 151.143q-27.429 44-47.429 100-1.714 5.143-10.286 28t-11.714 31.714-8.286 27.143-7.143 32.857-2 30q0 52.571 29.143 106.286 32 57.714 60.571 69.714 14.286 6.286 39.143 12t40.286 5.714q8 0 12-1.714 10.286-3.429 30.286-43.429 6.286-10.857 17.143-30.857t20-36.286 17.714-30.571q1.714-2.286 10-14.286t12.286-20.286 4-16.286q0-11.429-16.286-28.571t-35.429-31.429-35.429-30.286-16.286-26.286q0-5.143 2.857-12.857t4.857-11.714 8-13.714 6.571-10.857q43.429-78.286 99.429-134.286t134.286-99.429q1.143-0.571 10.857-6.571t13.714-8 11.714-4.857 12.857-2.857q10.286 0 26.286 16.286t30.286 35.429 31.429 35.429 28.571 16.286q8 0 16.286-4t20.286-12.286 14.286-10q14.286-8.571 30.571-17.714t36.286-20 30.857-17.143q40-20 43.429-30.286 1.714-4 1.714-12z" />
<glyph unicode="&#xe905;" glyph-name="twitter" horiz-adv-x="951" d="M925.714 717.716q-38.286-56-92.571-95.429 0.571-8 0.571-24 0-74.286-21.714-148.286t-66-142-105.429-120.286-147.429-83.429-184.571-31.143q-154.857 0-283.429 82.857 20-2.286 44.571-2.286 128.571 0 229.143 78.857-60 1.143-107.429 36.857t-65.143 91.143q18.857-2.857 34.857-2.857 24.571 0 48.571 6.286-64 13.143-106 63.714t-42 117.429v2.286q38.857-21.714 83.429-23.429-37.714 25.143-60 65.714t-22.286 88q0 50.286 25.143 93.143 69.143-85.143 168.286-136.286t212.286-56.857q-4.571 21.714-4.571 42.286 0 76.571 54 130.571t130.571 54q80 0 134.857-58.286 62.286 12 117.143 44.571-21.143-65.714-81.143-101.714 53.143 5.714 106.286 28.571z" />
<glyph unicode="&#xe906;" glyph-name="facebook" horiz-adv-x="602" d="M548 944v-150.857h-89.714q-49.143 0-66.286-20.571t-17.143-61.714v-108h167.429l-22.286-169.143h-145.143v-433.714h-174.857v433.714h-145.714v169.143h145.714v124.571q0 106.286 59.429 164.857t158.286 58.571q84 0 130.286-6.857z" />
<glyph unicode="&#xe907;" glyph-name="github" horiz-adv-x="878" d="M877.714 438.857q0-143.429-83.714-258t-216.286-158.571q-15.429-2.857-22.571 4t-7.143 17.143v120.571q0 55.429-29.714 81.143 32.571 3.429 58.571 10.286t53.714 22.286 46.286 38 30.286 60 11.714 86q0 69.143-45.143 117.714 21.143 52-4.571 116.571-16 5.143-46.286-6.286t-52.571-25.143l-21.714-13.714q-53.143 14.857-109.714 14.857t-109.714-14.857q-9.143 6.286-24.286 15.429t-47.714 22-49.143 7.714q-25.143-64.571-4-116.571-45.143-48.571-45.143-117.714 0-48.571 11.714-85.714t30-60 46-38.286 53.714-22.286 58.571-10.286q-22.857-20.571-28-58.857-12-5.714-25.714-8.571t-32.571-2.857-37.429 12.286-31.714 35.714q-10.857 18.286-27.714 29.714t-28.286 13.714l-11.429 1.714q-12 0-16.571-2.571t-2.857-6.571 5.143-8 7.429-6.857l4-2.857q12.571-5.714 24.857-21.714t18-29.143l5.714-13.143q7.429-21.714 25.143-35.143t38.286-17.143 39.714-4 31.714 2l13.143 2.286q0-21.714 0.286-50.857t0.286-30.857q0-10.286-7.429-17.143t-22.857-4q-132.571 44-216.286 158.571t-83.714 258q0 119.429 58.857 220.286t159.714 159.714 220.286 58.857 220.286-58.857 159.714-159.714 58.857-220.286z" />
<glyph unicode="&#xe908;" glyph-name="pinterest" horiz-adv-x="878" d="M877.714 438.857q0-119.429-58.857-220.286t-159.714-159.714-220.286-58.857q-63.429 0-124.571 18.286 33.714 53.143 44.571 93.714 5.143 19.429 30.857 120.571 11.429-22.286 41.714-38.571t65.143-16.286q69.143 0 123.429 39.143t84 107.714 29.714 154.286q0 65.143-34 122.286t-98.571 93.143-145.714 36q-60 0-112-16.571t-88.286-44-62.286-63.143-38.286-74-12.286-76.571q0-59.429 22.857-104.571t66.857-63.429q17.143-6.857 21.714 11.429 1.143 4 4.571 17.714t4.571 17.143q3.429 13.143-6.286 24.571-29.143 34.857-29.143 86.286 0 86.286 59.714 148.286t156.286 62q86.286 0 134.571-46.857t48.286-121.714q0-97.143-39.143-165.143t-100.286-68q-34.857 0-56 24.857t-13.143 59.714q4.571 20 15.143 53.429t17.143 58.857 6.571 43.143q0 28.571-15.429 47.429t-44 18.857q-35.429 0-60-32.571t-24.571-81.143q0-41.714 14.286-69.714l-56.571-238.857q-9.714-40-7.429-101.143-117.714 52-190.286 160.571t-72.571 241.714q0 119.429 58.857 220.286t159.714 159.714 220.286 58.857 220.286-58.857 159.714-159.714 58.857-220.286z" />
<glyph unicode="&#xe909;" glyph-name="google-plus" horiz-adv-x="1317" d="M821.143 429.143q0-118.857-49.714-211.714t-141.714-145.143-210.857-52.286q-85.143 0-162.857 33.143t-133.714 89.143-89.143 133.714-33.143 162.857 33.143 162.857 89.143 133.714 133.714 89.143 162.857 33.143q163.429 0 280.571-109.714l-113.714-109.143q-66.857 64.571-166.857 64.571-70.286 0-130-35.429t-94.571-96.286-34.857-132.857 34.857-132.857 94.571-96.286 130-35.429q47.429 0 87.143 13.143t65.429 32.857 44.857 44.857 28 47.429 12.286 42.286h-237.714v144h395.429q6.857-36 6.857-69.714zM1316.571 498.857v-120h-119.429v-119.429h-120v119.429h-119.429v120h119.429v119.429h120v-119.429h119.429z" />
<glyph unicode="&#xe90a;" glyph-name="email" d="M1024 545.143v-453.714q0-37.714-26.857-64.571t-64.571-26.857h-841.143q-37.714 0-64.571 26.857t-26.857 64.571v453.714q25.143-28 57.714-49.714 206.857-140.571 284-197.143 32.571-24 52.857-37.429t54-27.429 62.857-14h1.143q29.143 0 62.857 14t54 27.429 52.857 37.429q97.143 70.286 284.571 197.143 32.571 22.286 57.143 49.714zM1024 713.143q0-45.143-28-86.286t-69.714-70.286q-214.857-149.143-267.429-185.714-5.714-4-24.286-17.429t-30.857-21.714-29.714-18.571-32.857-15.429-28.571-5.143h-1.143q-13.143 0-28.571 5.143t-32.857 15.429-29.714 18.571-30.857 21.714-24.286 17.429q-52 36.571-149.714 104.286t-117.143 81.429q-35.429 24-66.857 66t-31.429 78q0 44.571 23.714 74.286t67.714 29.714h841.143q37.143 0 64.286-26.857t27.143-64.571z" />
<glyph unicode="&#xe90b;" glyph-name="linkedin" horiz-adv-x="878" d="M199.429 593.714v-566.286h-188.571v566.286h188.571zM211.429 768.571q0.571-41.714-28.857-69.714t-77.429-28h-1.143q-46.857 0-75.429 28t-28.571 69.714q0 42.286 29.429 70t76.857 27.714 76-27.714 29.143-70zM877.714 352v-324.571h-188v302.857q0 60-23.143 94t-72.286 34q-36 0-60.286-19.714t-36.286-48.857q-6.286-17.143-6.286-46.286v-316h-188q1.143 228 1.143 369.714t-0.571 169.143l-0.571 27.429h188v-82.286h-1.143q11.429 18.286 23.429 32t32.286 29.714 49.714 24.857 65.429 8.857q97.714 0 157.143-64.857t59.429-190z" />
<glyph unicode="&#xe90c;" glyph-name="mobile" horiz-adv-x="731" d="M420.551 87.773q0 22.629-16.115 38.744t-38.744 16.115-38.744-16.115-16.115-38.744 16.115-38.744 38.744-16.115 38.744 16.115 16.115 38.744zM563.178 197.487v482.742q0 8.915-6.515 15.429t-15.429 6.515h-351.085q-8.915 0-15.429-6.515t-6.515-15.429v-482.742q0-8.915 6.515-15.429t15.429-6.515h351.085q8.915 0 15.429 6.515t6.515 15.429zM431.522 778.973q0 10.971-10.971 10.971h-109.715q-10.971 0-10.971-10.971t10.971-10.971h109.715q10.971 0 10.971 10.971zM629.007 789.943v-702.171q0-35.656-26.056-61.715t-61.715-26.056h-351.085q-35.656 0-61.715 26.056t-26.056 61.715v702.171q0 35.656 26.056 61.715t61.715 26.056h351.085q35.656 0 61.715-26.056t26.056-61.715z" />
<glyph unicode="&#xe90d;" glyph-name="youtube" horiz-adv-x="878" d="M554.857 240v-120.571q0-38.286-22.286-38.286-13.143 0-25.714 12.571v172q12.571 12.571 25.714 12.571 22.286 0 22.286-38.286zM748 239.428v-26.286h-51.429v26.286q0 38.857 25.714 38.857t25.714-38.857zM196 364h61.143v53.714h-178.286v-53.714h60v-325.143h57.143v325.143zM360.571 38.857h50.857v282.286h-50.857v-216q-17.143-24-32.571-24-10.286 0-12 12-0.571 1.714-0.571 20v208h-50.857v-223.429q0-28 4.571-41.714 6.857-21.143 33.143-21.143 27.429 0 58.286 34.857v-30.857zM605.714 123.428v112.571q0 41.714-5.143 56.571-9.714 32-40.571 32-28.571 0-53.143-30.857v124h-50.857v-378.857h50.857v27.429q25.714-31.429 53.143-31.429 30.857 0 40.571 31.429 5.143 15.429 5.143 57.143zM798.857 129.143v7.429h-52q0-29.143-1.143-34.857-4-20.571-22.857-20.571-26.286 0-26.286 39.429v49.714h102.286v58.857q0 45.143-15.429 66.286-22.286 29.143-60.571 29.143-38.857 0-61.143-29.143-16-21.143-16-66.286v-98.857q0-45.143 16.571-66.286 22.286-29.143 61.714-29.143 41.143 0 61.714 30.286 10.286 15.429 12 30.857 1.143 5.143 1.143 33.143zM451.429 650.857v120q0 39.429-24.571 39.429t-24.571-39.429v-120q0-40 24.571-40t24.571 40zM862.286 221.714q0-133.714-14.857-200-8-33.714-33.143-56.571t-58.286-26.286q-105.143-12-317.143-12t-317.143 12q-33.143 3.429-58.571 26.286t-32.857 56.571q-14.857 64-14.857 200 0 133.714 14.857 200 8 33.714 33.143 56.571t58.857 26.857q104.571 11.429 316.571 11.429t317.143-11.429q33.143-4 58.571-26.857t32.857-56.571q14.857-64 14.857-200zM292 950.857h58.286l-69.143-228v-154.857h-57.143v154.857q-8 42.286-34.857 121.143-21.143 58.857-37.143 106.857h60.571l40.571-150.286zM503.429 760.571v-100q0-46.286-16-67.429-21.143-29.143-60.571-29.143-38.286 0-60 29.143-16 21.714-16 67.429v100q0 45.714 16 66.857 21.714 29.143 60 29.143 39.429 0 60.571-29.143 16-21.143 16-66.857zM694.857 853.143v-285.143h-52v31.429q-30.286-35.429-58.857-35.429-26.286 0-33.714 21.143-4.571 13.714-4.571 42.857v225.143h52v-209.714q0-18.857 0.571-20 1.714-12.571 12-12.571 15.429 0 32.571 24.571v217.714h52z" />
<glyph unicode="&#xe90e;" glyph-name="xing" horiz-adv-x="805" d="M341.143 569.714q-5.714-10.286-146.857-260.571-15.429-26.286-37.143-26.286h-136.571q-12 0-17.714 9.714t0 20.571l144.571 256q0.571 0 0 0.571l-92 159.429q-6.857 12.571-0.571 21.143 5.143 8.571 18.286 8.571h136.571q22.857 0 37.714-25.714zM801.714 936.571q6.286-9.143 0-21.143l-301.714-533.714v-0.571l192-351.429q6.286-11.429 0.571-21.143-5.714-8.571-18.286-8.571h-136.571q-24 0-37.714 25.714l-193.714 355.429q10.286 18.286 303.429 538.286 14.286 25.714 36.571 25.714h137.714q12.571 0 17.714-8.571z" />
<glyph unicode="&#xe90f;" glyph-name="stack-overflow" horiz-adv-x="878" d="M736.571 18.286h-638.857v274.286h-91.429v-365.714h821.714v365.714h-91.429v-274.286zM198.286 317.714l18.857 89.714 447.429-94.286-18.857-89.143zM257.143 531.428l38.286 83.429 414.286-193.714-38.286-82.857zM372 734.857l58.286 70.286 350.857-293.143-58.286-70.286zM598.857 950.857l272.571-366.286-73.143-54.857-272.571 366.286zM188.571 110.286v90.857h457.143v-90.857h-457.143z" />
<glyph unicode="&#xe910;" glyph-name="instagram" horiz-adv-x="878" d="M778.286 136v370.286h-77.143q11.429-36 11.429-74.857 0-72-36.571-132.857t-99.429-96.286-137.143-35.429q-112.571 0-192.571 77.429t-80 187.143q0 38.857 11.429 74.857h-80.571v-370.286q0-14.857 10-24.857t24.857-10h610.857q14.286 0 24.571 10t10.286 24.857zM616 440.571q0 70.857-51.714 120.857t-124.857 50q-72.571 0-124.286-50t-51.714-120.857 51.714-120.857 124.286-50q73.143 0 124.857 50t51.714 120.857zM778.286 646.286v94.286q0 16-11.429 27.714t-28 11.714h-99.429q-16.571 0-28-11.714t-11.429-27.714v-94.286q0-16.571 11.429-28t28-11.429h99.429q16.571 0 28 11.429t11.429 28zM877.714 765.143v-652.571q0-46.286-33.143-79.429t-79.429-33.143h-652.571q-46.286 0-79.429 33.143t-33.143 79.429v652.571q0 46.286 33.143 79.429t79.429 33.143h652.571q46.286 0 79.429-33.143t33.143-79.429z" />
<glyph unicode="&#xe911;" glyph-name="flickr" horiz-adv-x="878" d="M713.143 877.714q68 0 116.286-48.286t48.286-116.286v-548.571q0-68-48.286-116.286t-116.286-48.286h-548.571q-68 0-116.286 48.286t-48.286 116.286v548.571q0 68 48.286 116.286t116.286 48.286h548.571zM398.857 438.857q0 50.286-35.429 85.714t-85.714 35.429-85.714-35.429-35.429-85.714 35.429-85.714 85.714-35.429 85.714 35.429 35.429 85.714zM721.143 438.857q0 50.286-35.429 85.714t-85.714 35.429-85.714-35.429-35.429-85.714 35.429-85.714 85.714-35.429 85.714 35.429 35.429 85.714z" />
<glyph unicode="&#xe912;" glyph-name="bitbucket" horiz-adv-x="805" d="M465.714 460q4.571-36-28.857-57.714t-63.714-3.429q-22.286 9.714-30.571 33.143t-0.286 46.857 29.714 33.143q20.571 10.286 41.429 6.857t36.571-20.286 15.714-38.571zM529.143 472q-8 61.143-64.571 93.714t-112.571 7.429q-36-16-57.429-50.571t-19.714-74q2.286-52 44.286-88.571t94.571-32q52 4.571 86.857 48t28.571 96zM665.714 781.714q-11.429 15.429-32 25.429t-33.143 12.571-40.571 7.143q-166.286 26.857-323.429-1.143-24.571-4-37.714-6.857t-31.429-12.571-28.571-24.571q17.143-16 43.429-26t42-12.571 50-6.571q130.286-16.571 256-0.571 36 4.571 51.143 6.857t41.429 12.286 42.857 26.571zM698.286 190.286q-4.571-14.857-8.857-43.714t-8-48-16.286-40-33.143-32.286q-49.143-27.429-108.286-40.857t-115.429-12.571-115.143 10.571q-26.286 4.571-46.571 10.286t-43.714 15.429-41.714 24.857-29.714 35.143q-14.286 54.857-32.571 166.857l3.429 9.143 10.286 5.143q127.429-84.571 289.429-84.571t290 84.571q12-3.429 13.714-13.143t-2.857-25.714-4.571-21.143zM801.714 739.428q-14.857-95.429-63.429-374.286-2.857-17.143-15.429-32t-24.857-22.857-31.143-17.714q-144-72-348.571-50.286-141.714 15.429-225.143 79.429-8.571 6.857-14.571 15.143t-9.714 20-5.143 19.429-3.429 22.571-3.143 20q-5.143 28.571-15.143 85.714t-16 92.286-13.429 84.286-12.571 90.286q1.714 14.857 10 27.714t18 21.429 25.714 17.143 26.286 12.857 27.429 10.571q71.429 26.286 178.857 36.571 216.571 21.143 386.286-28.571 88.571-26.286 122.857-69.714 9.143-11.429 9.429-29.143t-3.143-30.857z" />
<glyph unicode="&#xe913;" glyph-name="tumblr" horiz-adv-x="624" d="M539.429 155.239l45.714-135.429q-13.143-20-63.429-37.714t-101.143-18.286q-59.429-1.143-108.857 14.857t-81.429 42.286-54.286 60.571-31.714 68.571-9.429 67.429v310.857h-96v122.857q41.143 14.857 73.714 39.714t52 51.429 33.143 58.286 19.429 56.571 8.571 50.571q0.571 2.857 2.571 4.857t4.286 2h139.429v-242.286h190.286v-144h-190.857v-296q0-17.143 3.714-32t12.857-30 28.286-23.714 46.571-8q44.571 1.143 76.571 16.571z" />
<glyph unicode="&#xe914;" glyph-name="dribbble" horiz-adv-x="878" d="M585.143 93.714q-24 137.714-80 284.571h-1.143l-1.143-0.571q-9.143-3.429-24.571-9.429t-57.714-28-78.286-46.857-74.857-65.429-58.857-84.571l-8.571 6.286q105.143-85.714 238.857-85.714 75.429 0 146.286 29.714zM479.429 440.571q-12 28-30.286 63.429-177.714-53.143-384.571-53.143-0.571-4-0.571-12 0-70.857 25.143-135.143t70.857-115.143q28.571 50.857 70.571 95.143t81.429 71.143 74.571 46.286 56.857 27.429l21.143 7.429q2.286 0.571 7.429 2t7.429 2.571zM418.286 561.714q-68.571 121.714-139.429 216-78.857-37.143-133.714-106.286t-73.143-155.429q172.571 0 346.286 45.714zM809.143 379.428q-120 34.286-233.714 16.571 49.714-136.571 73.143-268 63.429 42.857 105.714 108.286t54.857 143.143zM349.143 802.857q-0.571 0-1.143-0.571 0.571 0.571 1.143 0.571zM686.286 720q-105.714 93.714-247.429 93.714-43.429 0-88.571-10.857 74.857-97.143 140.571-218.286 39.429 14.857 74.286 34.571t55.143 35.143 37.429 32.571 21.429 23.143zM813.714 442.857q-1.714 132.571-85.143 234.286l-0.571-0.571q-5.143-6.857-10.857-14t-24.857-25.429-40.571-34.571-57.143-37.143-75.143-36.857q14.286-30.286 25.143-54.286 1.143-3.429 3.714-10t4.286-9.429q20.571 2.857 42.571 4t42 1.143 39.429-0.857 36.571-2.286 32.286-3.143 27.429-3.714 20.857-3.429 14.286-2.571zM877.714 438.857q0-119.429-58.857-220.286t-159.714-159.714-220.286-58.857-220.286 58.857-159.714 159.714-58.857 220.286 58.857 220.286 159.714 159.714 220.286 58.857 220.286-58.857 159.714-159.714 58.857-220.286z" />
<glyph unicode="&#xe915;" glyph-name="skype" horiz-adv-x="878" d="M670.286 343.428q0 28.571-11.143 52.286t-27.714 39.143-41.714 28-47.143 19.429-50 13.143l-59.429 13.714q-17.143 4-25.143 6t-20 6.571-17.143 9.143-9.429 12-4.286 17.143q0 44 82.286 44 24.571 0 44-6.857t30.857-16.286 21.714-19.143 22.857-16.571 27.429-6.857q26.857 0 43.143 18.286t16.286 44q0 31.429-32 56.857t-81.143 38.571-104 13.143q-38.857 0-75.429-8.857t-68.286-26.857-50.857-49.714-19.143-73.429q0-34.857 10.857-60.857t32-43.143 45.714-27.714 58.857-18.571l83.429-20.571q51.429-12.571 64-20.571 18.286-11.429 18.286-34.286 0-22.286-22.857-36.857t-60-14.571q-29.143 0-52.286 9.143t-37.143 22-26 25.714-26.286 22-30.857 9.143q-28.571 0-43.143-17.143t-14.571-42.857q0-52.571 69.714-90t166.286-37.429q41.714 0 80 10.571t70 30.571 50.571 53.429 18.857 75.143zM877.714 219.428q0-90.857-64.286-155.143t-155.143-64.286q-74.286 0-133.714 45.714-44-9.143-85.714-9.143-81.714 0-156.286 31.714t-128.571 85.714-85.714 128.571-31.714 156.286q0 41.714 9.143 85.714-45.714 59.429-45.714 133.714 0 90.857 64.286 155.143t155.143 64.286q74.286 0 133.714-45.714 44 9.143 85.714 9.143 81.714 0 156.286-31.714t128.571-85.714 85.714-128.571 31.714-156.286q0-41.714-9.143-85.714 45.714-59.429 45.714-133.714z" />
<glyph unicode="&#xe916;" glyph-name="foursquare" horiz-adv-x="735" d="M571.429 702.857l21.143 110.857q2.857 13.143-5.143 22.857t-20 9.714h-406.857q-13.143 0-22-9.714t-8.857-21.143v-629.143q0-4 3.429-0.571l166.286 201.143q13.143 14.857 21.714 19.143t27.429 4.286h136.571q12.571 0 21.143 8.286t10.286 16.857q13.714 74.286 21.143 109.143 2.286 12-6.571 22.857t-20.857 10.857h-168q-16.571 0-27.429 10.857t-10.857 27.429v24q0 16.571 10.857 27.143t27.429 10.571h197.714q10.286 0 20 7.714t11.429 16.857zM701.143 829.714q-8.571-41.714-30.571-152.286t-39.714-200-20-99.143q-3.429-12.571-5.143-18.571t-8-18.571-14-18.857-22-12-33.143-5.714h-154.857q-7.429 0-12.571-5.714-4.571-5.143-243.429-282.286-12.571-14.286-33.429-16.286t-27.714 3.143q-31.429 12.571-31.429 56v805.714q0 31.429 21.714 58.571t68.571 27.143h507.429q54.286 0 72.571-30.286t5.714-90.857zM701.143 829.714l-90.286-451.429q2.286 9.714 20 99.143t39.714 200 30.571 152.286z" />
<glyph unicode="&#xe917;" glyph-name="vk" horiz-adv-x="1104" d="M1095.429 653.714q13.143-36.571-85.714-168-13.714-18.286-37.143-48.571-44.571-57.143-51.429-74.857-9.714-23.429 8-46.286 9.714-12 46.286-46.857h0.571l2.286-2.286q80.571-74.857 109.143-126.286 1.714-2.857 3.714-7.143t4-15.143-0.286-19.429-14.286-15.714-33.714-7.143l-146.286-2.286q-13.714-2.857-32 2.857t-29.714 12.571l-11.429 6.857q-17.143 12-40 36.571t-39.143 44.286-34.857 33.143-32.286 8.857q-1.714-0.571-4.571-2t-9.714-8.286-12.286-16.857-9.714-29.714-3.714-44.286q0-8.571-2-15.714t-4.286-10.571l-2.286-2.857q-10.286-10.857-30.286-12.571h-65.714q-40.571-2.286-83.429 9.429t-75.143 30.286-58.857 37.714-40.286 32.857l-14.286 13.714q-5.714 5.714-15.714 17.143t-40.857 52-60.571 86.286-70 120.571-74.571 155.429q-3.429 9.143-3.429 15.429t1.714 9.143l2.286 3.429q8.571 10.857 32.571 10.857l156.571 1.143q6.857-1.143 13.143-3.714t9.143-4.857l2.857-1.714q9.143-6.286 13.714-18.286 11.429-28.571 26.286-59.143t23.429-46.571l9.143-16.571q16.571-34.286 32-59.429t27.714-39.143 23.714-22 19.429-8 15.429 2.857q1.143 0.571 2.857 2.857t6.857 12.571 7.714 26.857 5.429 46.286 0 71.429q-1.143 22.857-5.143 41.714t-8 26.286l-3.429 6.857q-14.286 19.429-48.571 24.571-7.429 1.143 2.857 13.714 9.714 10.857 21.714 17.143 30.286 14.857 136.571 13.714 46.857-0.571 77.143-7.429 11.429-2.857 19.143-7.714t11.714-13.714 6-18.286 2-26-0.571-31.429-1.429-40.286-0.857-47.143q0-6.286-0.571-24t-0.286-27.429 2-23.143 6.571-22.286 12.857-14q4.571-1.143 9.714-2.286t14.857 6.286 21.714 19.714 29.714 38.286 38.857 61.429q34.286 59.429 61.143 128.571 2.286 5.714 5.714 10t6.286 6l2.286 1.714 2.857 1.429t7.429 1.714 11.429 0.286l164.571 1.143q22.286 2.857 36.571-1.429t17.714-9.429z" />
<glyph unicode="&#xe918;" glyph-name="weibo" horiz-adv-x="1028" d="M385.714 217.143q12 19.429 6.286 39.429t-25.714 28.571q-19.429 8-41.714 0.571t-34.286-26.286q-12.571-19.429-7.429-39.143t24.571-28.857 42.571-1.429 35.714 27.143zM439.429 286.286q4.571 7.429 2 15.143t-10 10.571q-8 2.857-16.286-0.286t-12.286-10.571q-9.714-17.714 7.429-25.714 8-2.857 16.571 0.286t12.571 10.571zM538.857 225.143q-25.714-58.286-90.286-85.714t-128-6.857q-61.143 19.429-84.286 72.286t3.714 107.143q26.857 53.143 86.571 79.429t120.286 10.857q63.429-16.571 90.571-68.286t1.429-108.857zM717.143 316.571q-5.143 54.857-50.857 97.143t-119.143 62.286-156.857 12q-127.429-13.143-211.143-80.857t-75.714-151.143q5.143-54.857 50.857-97.143t119.143-62.286 156.857-12q127.429 13.143 211.143 80.857t75.714 151.143zM893.143 314.286q0-38.857-21.143-79.714t-62.286-78.286-96.286-67.143-129.143-47.429-154.571-17.714-157.143 19.143-137.429 53.143-98 86.286-37.143 114q0 65.714 39.714 140t112.857 147.429q96.571 96.571 195.143 134.857t140.857-4q37.143-36.571 11.429-119.429-2.286-8-0.571-11.429t5.714-4 8.286 0.286 7.714 2l3.429 1.143q79.429 33.714 140.571 33.714t87.429-34.857q25.714-36 0-101.714-1.143-7.429-2.571-11.429t2.571-7.143 6.857-4.286 9.714-3.429q32.571-10.286 58.857-26.857t45.714-46.571 19.429-66.571zM850.857 670.857q24-26.857 31.143-62t-3.714-67.143q-4.571-13.143-16.857-19.429t-25.429-2.286q-13.143 4.571-19.429 16.857t-2.286 25.429q11.429 36-13.714 63.429t-61.143 20q-13.714-2.857-25.714 4.571t-14.286 21.143q-2.857 13.714 4.571 25.429t21.143 14.571q34.286 7.429 68-3.143t57.714-37.429zM954.286 764q49.714-54.857 64.286-127.143t-7.714-138q-5.143-15.429-19.429-22.857t-29.714-2.286-22.857 19.429-2.857 29.714q16 46.857 5.714 98.286t-45.714 90.286q-35.429 39.429-84.571 54.571t-98.857 4.857q-16-3.429-29.714 5.429t-17.143 24.857 5.429 29.429 24.857 16.857q70.286 14.857 139.429-6.571t118.857-76.857z" />
<glyph unicode="&#xe919;" glyph-name="renren" horiz-adv-x="878" d="M647.429 53.714q-97.714-53.714-210.286-53.714-112 0-209.714 53.714 78.857 49.714 134.571 120.571t75.143 153.143q20-82.286 75.714-153.143t134.571-120.571zM364.571 869.714v-277.143q0-144-72.286-262.571t-188.857-175.143q-103.429 122.857-103.429 282.857 0 106.857 47.714 199.714t131.143 154 185.714 78.286zM877.714 437.714q0-160-103.429-282.857-116.571 56.571-188.857 175.143t-72.286 262.571v277.143q102.286-17.143 185.714-78.286t131.143-154 47.714-199.714z" />
<glyph unicode="&#xe91a;" glyph-name="stack-exchange" horiz-adv-x="731" d="M719.429 234.857v-37.714q0-48.571-32.857-82.571t-79.143-34h-32.571l-148.571-153.714v153.714h-302.286q-46.286 0-79.143 34t-32.857 82.571v37.714h707.429zM719.429 421.143v-145.714h-707.429v145.714h707.429zM719.429 608.571v-145.714h-707.429v145.714h707.429zM719.429 688.571v-38.286h-707.429v38.286q0 48 32.857 82t79.143 34h483.429q46.286 0 79.143-34t32.857-82z" />
<glyph unicode="&#xe91b;" glyph-name="slack" horiz-adv-x="951" d="M868 507.428q35.429 0 59.143-23.143t23.714-58q0-55.429-53.143-74.286l-98.286-33.714 32-95.429q4-12 4-26.857 0-33.714-24-58.286t-57.714-24.571q-26.857 0-48.857 15.429t-30.571 41.143l-31.429 94.286-177.143-60.571 31.429-93.714q4.571-13.714 4.571-26.857 0-33.714-24-58.286t-58.286-24.571q-26.857 0-48.571 15.429t-30.286 41.143l-31.429 93.143-87.429-30.286q-16.571-5.143-28.571-5.143-34.857 0-58 22.857t-23.143 57.714q0 26.857 15.714 48.571t40.857 30.286l89.143 30.286-60 178.857-89.143-30.857q-14.857-4.571-27.429-4.571-34.286 0-57.714 23.143t-23.429 57.429q0 26.857 15.714 48.571t40.857 30.286l89.714 30.286-30.286 90.857q-4.571 13.714-4.571 26.857 0 34.286 24 58.571t58.286 24.286q26.857 0 48.571-15.429t30.286-41.143l30.857-91.429 177.143 60-30.857 91.429q-4.571 13.714-4.571 26.857 0 33.714 24.286 58.286t58 24.571q26.857 0 48.857-15.714t30.571-40.857l30.286-92 92.571 31.429q12 3.429 24.571 3.429 34.286 0 58.571-22.571t24.286-56.286q0-25.714-17.143-46.571t-42.286-29.429l-89.714-30.857 60-180.571 93.714 32q13.714 4.571 26.286 4.571zM414.286 357.714l177.143 60-60 180-177.143-61.143z" />
<glyph unicode="&#xe91c;" glyph-name="wordpress" d="M72.571 438.857q0 93.143 38.286 178.857l209.714-574.286q-112 54.286-180 160.571t-68 234.857zM808.571 461.143q0-10.857-1.429-22t-5.714-28.286-6.571-25.143-10-33.714-10-33.143l-43.429-146.286-158.857 472q26.286 1.714 50.286 4.571 10.857 1.143 14.857 10.571t-1.429 17.714-16.286 7.714l-117.143-5.714q-42.857 0.571-115.429 5.714-6.857 0.571-11.714-2.857t-6.571-8.571-0.857-10.571 5.143-9.429 11.143-4.571l45.714-4.571 68.571-187.429-96-288-160 475.429q26.286 1.714 50.286 4.571 10.857 1.143 14.857 10.571t-1.429 17.714-16.286 7.714l-117.143-5.714q-4 0-13.143 0.286t-14.857 0.286q60 91.429 156.857 144.857t210 53.429q84 0 160.286-30.286t136.286-85.143h-5.714q-31.429 0-52.571-23.143t-21.143-54.571q0-6.857 1.143-13.714t2.286-12.286 4.571-13.143 5.143-12 6.857-12.857 7.143-12 8.286-13.714 8-13.143q36-61.143 36-121.143zM519.429 400.571l135.429-369.714q0.571-3.429 2.857-6.286-72-25.143-145.714-25.143-64 0-124 18.286zM897.143 649.714q54.286-99.429 54.286-210.857 0-119.429-59.429-220.286t-159.429-159.143l134.286 387.429q33.714 96.571 33.714 157.714 0 24-3.429 45.143zM512 950.857q104 0 198.857-40.571t163.429-109.143 109.143-163.429 40.571-198.857-40.571-198.857-109.143-163.429-163.429-109.143-198.857-40.571-198.857 40.571-163.429 109.143-109.143 163.429-40.571 198.857 40.571 198.857 109.143 163.429 163.429 109.143 198.857 40.571zM512-49.714q98.857 0 189.429 38.857t156 104.286 104.286 156 38.857 189.429-38.857 189.429-104.286 156-156 104.286-189.429 38.857-189.429-38.857-156-104.286-104.286-156-38.857-189.429 38.857-189.429 104.286-156 156-104.286 189.429-38.857z" />
<glyph unicode="&#xe91d;" glyph-name="stumbleupon" horiz-adv-x="1097" d="M606.857 544v67.429q0 24-17.143 41.143t-41.143 17.143-41.143-17.143-17.143-41.143v-349.714q0-100-72-170.857t-173.143-70.857q-101.714 0-173.429 71.714t-71.714 173.429v152h187.429v-149.714q0-24.571 17.143-41.429t41.143-16.857 41.143 16.857 17.143 41.429v354.286q0 97.714 72.286 166.857t172.286 69.143q100.571 0 172.571-69.714t72-168v-77.714l-111.429-33.143zM909.714 417.143h187.429v-152q0-101.714-71.714-173.429t-173.429-71.714q-101.143 0-173.143 71.143t-72 171.714v153.143l74.857-34.857 111.429 33.143v-154.286q0-24 17.143-40.857t41.143-16.857 41.143 16.857 17.143 40.857v157.143z" />
<glyph unicode="&#xe91e;" glyph-name="delicious" horiz-adv-x="878" d="M841.143 164.571v274.286h-402.286v402.286h-274.286q-53.143 0-90.571-37.429t-37.429-90.571v-274.286h402.286v-402.286h274.286q53.143 0 90.571 37.429t37.429 90.571zM877.714 713.143v-548.571q0-68-48.286-116.286t-116.286-48.286h-548.571q-68 0-116.286 48.286t-48.286 116.286v548.571q0 68 48.286 116.286t116.286 48.286h548.571q68 0 116.286-48.286t48.286-116.286z" />
<glyph unicode="&#xe91f;" glyph-name="periscope" horiz-adv-x="841" d="M406.533 927.966c142.636 11.175 243.606-56.030 312.101-135.676 60.221-70.021 122.511-197.118 94.097-338.040-23.533-116.677-88.539-213.337-149.174-298.947-30.655-43.288-61.591-82.409-100.972-121.872-34.379-34.455-82.278-93.753-128.508-94.28-50.409-0.579-114.013 72.847-142.286 101.175-82.774 82.946-145.558 174.803-199.646 287.446-26.542 55.254-51.652 119.949-52.795 190.868-2.78 172.758 94.483 302.508 213.429 365.632 43.973 23.341 94.548 39.056 153.751 43.694zM452.433 309.379c119.108 9.198 213.737 104.821 213.418 229.961-0.396 155.287-132.022 265.735-289.157 229.956 35.942-15.878 61.575-55.32 52.779-103.478-17.816-97.553-186.476-97.436-185.877 16.096-130.273-164.354 11.078-387.795 208.838-372.534z" />
<glyph unicode="&#xe920;" glyph-name="unsplash" horiz-adv-x="1207" d="M602.371 528.599c-89.741 0-163.646-72.849-163.646-163.646s73.904-162.59 163.646-162.59c89.741 0 163.646 72.849 163.646 163.646s-72.849 162.59-163.646 162.59v0zM1001.456 765.093h-126.693l-28.506 77.072c-14.781 36.952-59.124 67.57-98.187 67.57h-290.339c-40.12 0-83.406-30.618-98.187-67.57l-28.506-77.072h-126.693c-80.239 0-144.642-65.458-144.642-144.642v-507.83c0-80.239 65.458-144.642 144.642-144.642h797.113c80.239 0 144.642 65.458 144.642 144.642v506.774c1.056 80.239-64.402 145.697-144.642 145.697v0zM602.371 111.566c-140.418 0-253.387 114.024-253.387 253.387s114.024 253.387 253.387 253.387c140.418 0 253.387-114.024 253.387-253.387s-112.968-253.387-253.387-253.387v0z" />
<glyph unicode="&#xe921;" glyph-name="fax" d="M164.571 731.428q37.714 0 64.571-26.857t26.857-64.571v-621.714q0-37.714-26.857-64.571t-64.571-26.857h-73.143q-37.714 0-64.571 26.857t-26.857 64.571v621.714q0 37.714 26.857 64.571t64.571 26.857h73.143zM950.857 638.286q33.143-19.429 53.143-53.143t20-73.143v-438.857q0-60.571-42.857-103.429t-103.429-42.857h-493.714q-37.714 0-64.571 26.857t-26.857 64.571v877.714q0 22.857 16 38.857t38.857 16h384q22.857 0 50.286-11.429t43.429-27.429l86.857-86.857q16-16 27.429-43.429t11.429-50.286v-93.143zM530.286 73.143v73.143q0 8-5.143 13.143t-13.143 5.143h-73.143q-8 0-13.143-5.143t-5.143-13.143v-73.143q0-8 5.143-13.143t13.143-5.143h73.143q8 0 13.143 5.143t5.143 13.143zM530.286 219.428v73.143q0 8-5.143 13.143t-13.143 5.143h-73.143q-8 0-13.143-5.143t-5.143-13.143v-73.143q0-8 5.143-13.143t13.143-5.143h73.143q8 0 13.143 5.143t5.143 13.143zM530.286 365.714v73.143q0 8-5.143 13.143t-13.143 5.143h-73.143q-8 0-13.143-5.143t-5.143-13.143v-73.143q0-8 5.143-13.143t13.143-5.143h73.143q8 0 13.143 5.143t5.143 13.143zM676.571 73.143v73.143q0 8-5.143 13.143t-13.143 5.143h-73.143q-8 0-13.143-5.143t-5.143-13.143v-73.143q0-8 5.143-13.143t13.143-5.143h73.143q8 0 13.143 5.143t5.143 13.143zM676.571 219.428v73.143q0 8-5.143 13.143t-13.143 5.143h-73.143q-8 0-13.143-5.143t-5.143-13.143v-73.143q0-8 5.143-13.143t13.143-5.143h73.143q8 0 13.143 5.143t5.143 13.143zM676.571 365.714v73.143q0 8-5.143 13.143t-13.143 5.143h-73.143q-8 0-13.143-5.143t-5.143-13.143v-73.143q0-8 5.143-13.143t13.143-5.143h73.143q8 0 13.143 5.143t5.143 13.143zM822.857 73.143v73.143q0 8-5.143 13.143t-13.143 5.143h-73.143q-8 0-13.143-5.143t-5.143-13.143v-73.143q0-8 5.143-13.143t13.143-5.143h73.143q8 0 13.143 5.143t5.143 13.143zM822.857 219.428v73.143q0 8-5.143 13.143t-13.143 5.143h-73.143q-8 0-13.143-5.143t-5.143-13.143v-73.143q0-8 5.143-13.143t13.143-5.143h73.143q8 0 13.143 5.143t5.143 13.143zM822.857 365.714v73.143q0 8-5.143 13.143t-13.143 5.143h-73.143q-8 0-13.143-5.143t-5.143-13.143v-73.143q0-8 5.143-13.143t13.143-5.143h73.143q8 0 13.143 5.143t5.143 13.143zM877.714 585.143v146.286h-91.429q-22.857 0-38.857 16t-16 38.857v91.429h-365.714v-292.571h512z" />
<glyph unicode="&#xe922;" glyph-name="behance" horiz-adv-x="1170" d="M1056 757.143h-292v-70.857h292v70.857zM912 513.714q-51.429 0-83.429-30t-35.429-81.429h233.143q-10.286 111.429-114.286 111.429zM921.143 179.428q36 0 69.714 18.286t43.429 49.714h126.286q-57.143-175.429-244-175.429-122.286 0-194.571 75.429t-72.286 198.286q0 118.857 74.571 197.429t192.286 78.571q78.857 0 137.429-38.857t87.429-102.286 28.857-141.714q0-9.714-1.143-26.857h-376q0-63.429 32.857-98t95.143-34.571zM158.286 208h169.143q117.143 0 117.143 95.429 0 102.857-113.714 102.857h-172.571v-198.286zM158.286 514.857h160.571q44.571 0 70.571 20.857t26 64.857q0 82.286-108.571 82.286h-148.571v-168zM0 805.714h339.429q49.714 0 88.571-8t72.286-27.143 51.429-55.143 18-88q0-103.429-98.286-150.286 65.143-18.286 98.286-65.714t33.143-116.571q0-42.857-14-78t-37.714-59.143-56.286-40.571-69.143-24-76.571-7.429h-349.143v720z" />
<glyph unicode="&#xe923;" glyph-name="steam" d="M904 618.286q0-57.714-40.857-98.571t-98.571-40.857-98.571 40.857-40.857 98.571 40.857 98.571 98.571 40.857 98.571-40.857 40.857-98.571zM464 194.286q0 59.429-41.714 101.143t-101.143 41.714q-15.429 0-30.857-3.429l59.429-24q44-17.714 62.571-60.857t0.857-86.571q-17.714-44-61.143-62.286t-86.857-0.571q-12 4.571-35.429 14t-34.857 14q18.286-34.286 52-55.143t74.286-20.857q59.429 0 101.143 41.714t41.714 101.143zM938.286 617.714q0 72-51.143 123.143t-123.143 51.143q-72.571 0-123.714-51.143t-51.143-123.143q0-72.571 51.143-123.429t123.714-50.857q72 0 123.143 50.857t51.143 123.429zM1024 617.714q0-108-76.286-184t-183.714-76l-249.714-182.286q-6.857-73.714-62.286-124.571t-130.857-50.857q-69.143 0-122.286 43.429t-67.429 109.714l-131.429 52.571v245.143l222.286-89.714q45.143 27.429 98.857 27.429 7.429 0 20-1.143l162.286 232.571q1.143 106.857 77.429 182.286t183.143 75.429q107.429 0 183.714-76.286t76.286-183.714z" />
<glyph unicode="&#xe924;" glyph-name="spotify" horiz-adv-x="878" d="M644 259.428q0 18.286-17.143 29.143-110.286 65.714-255.429 65.714-76 0-164-19.429-24-5.143-24-29.714 0-11.429 7.714-19.714t20.286-8.286q2.857 0 21.143 4.571 75.429 15.429 138.857 15.429 129.143 0 226.857-58.857 10.857-6.286 18.857-6.286 10.857 0 18.857 7.714t8 19.714zM698.857 382.286q0 22.857-20 34.857-135.429 80.571-313.143 80.571-87.429 0-173.143-24-27.429-7.429-27.429-36.571 0-14.286 10-24.286t24.286-10q4 0 21.143 4.571 69.714 18.857 143.429 18.857 159.429 0 278.857-70.857 13.714-7.429 21.714-7.429 14.286 0 24.286 10t10 24.286zM760.571 524q0 26.857-22.857 40-72 41.714-167.429 63.143t-196 21.429q-116.571 0-208-26.857-13.143-4-22-14.571t-8.857-27.714q0-17.714 11.714-29.714t29.429-12q6.286 0 22.857 4.571 76 21.143 175.429 21.143 90.857 0 176.857-19.429t144.857-54.286q12-6.857 22.857-6.857 16.571 0 28.857 11.714t12.286 29.429zM877.714 438.857q0-119.429-58.857-220.286t-159.714-159.714-220.286-58.857-220.286 58.857-159.714 159.714-58.857 220.286 58.857 220.286 159.714 159.714 220.286 58.857 220.286-58.857 159.714-159.714 58.857-220.286z" />
<glyph unicode="&#xe925;" glyph-name="deviantart" horiz-adv-x="585" d="M585.143 777.714l-173.143-332.571 13.714-17.714h159.429v-237.143h-289.714l-25.143-17.143-81.143-156-17.143-17.143h-172v173.143l173.143 333.143-13.714 17.143h-159.429v237.143h289.714l25.143 17.143 81.143 156 17.143 17.143h172v-173.143z" />
<glyph unicode="&#xe926;" glyph-name="soundcloud" horiz-adv-x="1317" d="M448 166.857l9.143 137.714-9.143 298.857q-0.571 5.714-4.286 9.714t-9.429 4q-5.143 0-9.143-4t-4-9.714l-8-298.857 8-137.714q0.571-5.714 4.286-9.429t8.857-3.714q12.571 0 13.714 13.143zM617.143 183.428l6.286 120.571-6.857 334.857q0 9.143-7.429 13.714-4.571 2.857-9.143 2.857t-9.143-2.857q-7.429-4.571-7.429-13.714l-0.571-3.429-5.714-330.857q0-0.571 6.286-134.857v-0.571q0-5.714 3.429-9.714 5.143-6.286 13.143-6.286 6.286 0 11.429 5.143 5.143 4 5.143 11.429zM20 377.714l11.429-73.143-11.429-72q-1.143-5.143-5.143-5.143t-5.143 5.143l-9.714 72 9.714 73.143q1.143 5.143 5.143 5.143t5.143-5.143zM69.143 422.857l14.857-118.286-14.857-116q-1.143-5.143-5.714-5.143-5.143 0-5.143 5.714l-13.143 115.429 13.143 118.286q0 5.143 5.143 5.143 4.571 0 5.714-5.143zM121.714 444.571l14.286-140-14.286-135.429q0-6.286-6.286-6.286-5.714 0-6.857 6.286l-12 135.429 12 140q1.143 6.857 6.857 6.857 6.286 0 6.286-6.857zM175.429 448.571l13.143-144-13.143-139.429q-1.143-7.429-8-7.429-7.429 0-7.429 7.429l-12 139.429 12 144q0 7.429 7.429 7.429 6.857 0 8-7.429zM229.143 438.286l12-133.714-12-140.571q-1.143-9.143-9.143-9.143-3.429 0-6 2.571t-2.571 6.571l-11.429 140.571 11.429 133.714q0 3.429 2.571 6t6 2.571q8 0 9.143-8.571zM282.857 521.714l12-217.143-12-140.571q0-4-2.857-7.143t-6.857-3.143q-9.143 0-10.286 10.286l-10.286 140.571 10.286 217.143q1.143 10.286 10.286 10.286 4 0 6.857-3.143t2.857-7.143zM336.571 570.857l10.857-267.429-10.857-139.429q0-4.571-3.143-7.714t-7.714-3.143q-10.286 0-11.429 10.857l-9.143 139.429 9.143 267.429q1.143 10.857 11.429 10.857 4.571 0 7.714-3.143t3.143-7.714zM392.571 593.714l10.286-289.143-10.286-138.286q-1.143-12-12.571-12-10.857 0-12 12l-9.143 138.286 9.143 289.143q0 5.143 3.714 8.857t8.286 3.714q5.143 0 8.571-3.714t4-8.857zM616.571 169.714v0 0zM503.429 596l8.571-291.429-8.571-136.571q0-5.714-4.286-10t-10-4.286-9.714 4-4.571 10.286l-8 136.571 8 291.429q0 6.286 4.286 10.286t10 4 10-4 4.286-10.286zM560 585.143l8-281.143-8-134.857q0-6.286-4.571-10.857t-10.857-4.571-10.857 4.571-5.143 10.857l-6.857 134.857 6.857 281.143q0.571 6.857 5.143 11.429t10.857 4.571 10.571-4.571 4.857-11.429zM681.143 304l-8-132q0-7.429-5.143-12.571t-12.571-5.143-12.571 5.143-5.714 12.571l-3.429 65.143-3.429 66.857 6.857 363.429v1.714q1.143 8.571 6.857 13.714 5.143 4 11.429 4 4.571 0 8.571-2.857 8-4.571 9.143-14.857zM1316.571 314.857q0-66.857-47.429-114t-114.286-47.143h-449.143q-7.429 1.143-12.571 6.286t-5.143 12.571v513.714q0 13.143 16 18.857 48.571 19.429 103.429 19.429 111.429 0 193.143-75.143t91.429-184.857q30.286 12.571 62.857 12.571 66.857 0 114.286-47.429t47.429-114.857z" />
<glyph unicode="&#xe927;" glyph-name="vine" horiz-adv-x="878" d="M855.429 478.286v-113.143q-57.714-13.143-113.143-13.143-37.143-77.714-94.571-154.857t-103.714-123.143-73.143-60.857q-45.714-25.714-92.571 1.714-16 9.714-34.571 24.857t-48.571 47.714-58.571 73.429-61.429 105.143-60.286 139.429-52.286 179.714-40.286 222.857h161.714q14.857-124.571 40-227.714t59.714-181.143 69.429-134.571 80-111.429q96.571 96.571 164 232-81.143 41.143-127.429 125.714t-46.286 190.286q0 109.714 59.429 179.714t162.286 70q101.714 0 156-60.286t54.286-170q0-90.857-33.143-163.429-4-0.571-11.143-1.714t-26.286-1.143-36 3.429-35.429 14.571-28.857 29.429q17.714 58.857 17.714 105.143 0 49.714-16.571 75.429t-45.143 25.714q-30.286 0-48.571-28.286t-18.286-80.286q0-106.286 60-167.714t152.571-61.429q35.429 0 69.143 8z" />
<glyph unicode="&#xe928;" glyph-name="codepen" d="M123.429 282.857l344.571-229.714v205.143l-190.857 127.429zM88 365.143l110.286 73.714-110.286 73.714v-147.429zM556 53.143l344.571 229.714-153.714 102.857-190.857-127.429v-205.143zM512 334.857l155.429 104-155.429 104-155.429-104zM277.143 492l190.857 127.429v205.143l-344.571-229.714zM825.714 438.857l110.286-73.714v147.429zM746.857 492l153.714 102.857-344.571 229.714v-205.143zM1024 594.857v-312q0-23.429-19.429-36.571l-468-312q-12-7.429-24.571-7.429t-24.571 7.429l-468 312q-19.429 13.143-19.429 36.571v312q0 23.429 19.429 36.571l468 312q12 7.429 24.571 7.429t24.571-7.429l468-312q19.429-13.143 19.429-36.571z" />
<glyph unicode="&#xe929;" glyph-name="jsfiddle" horiz-adv-x="1170" d="M1028.571 509.714q63.429-26.286 102.571-83.143t39.143-126.571q0-93.714-67.429-160.286t-162.857-66.571q-2.286 0-6.571 0.286t-6 0.286h-695.429q-97.143 5.714-164.571 71.714t-67.429 160.286q0 62.857 31.429 116t84 84q-6.857 22.286-6.857 46.857 0 65.714 46.857 112t113.714 46.286q54.286 0 98.286-33.143 42.857 88 127.143 141.714t186.571 53.714q94.857 0 174.857-46t126.571-124.857 46.571-172q0-3.429-0.286-10.286t-0.286-10.286zM267.429 357.714q0-69.714 48-110.286t118.857-40.571q78.286 0 137.143 56.571-9.143 11.429-27.143 32.286t-24.857 28.857q-38.286-37.143-82.286-37.143-31.429 0-53.429 19.143t-22 50q0 30.286 22 49.714t52.286 19.429q25.143 0 48.286-12t41.714-31.429 37.143-42.857 39.429-46.857 44-42.857 55.429-31.429 69.429-12q69.143 0 116.857 40.857t47.714 108.857q0 69.143-48 109.714t-118.286 40.571q-81.714 0-137.714-55.429 8-9.143 16.857-19.429t19.714-22.857 16.571-19.429q37.714 36.571 81.143 36.571 29.714 0 52.571-18.857t22.857-48q0-32.571-21.143-52.286t-53.714-19.714q-24.571 0-47.143 12t-41.143 31.429-37.429 42.857-39.714 46.857-44.286 42.857-55.143 31.429-67.714 12q-69.714 0-118.286-40.286t-48.571-108.286z" />
<glyph unicode="&#xe92a;" glyph-name="hacker-news" horiz-adv-x="878" d="M462.286 377.143l152 285.143h-64l-89.714-178.286q-13.714-27.429-25.143-52.571l-24 52.571-88.571 178.286h-68.571l150.286-281.714v-185.143h57.714v181.714zM877.714 713.143v-548.571q0-68-48.286-116.286t-116.286-48.286h-548.571q-68 0-116.286 48.286t-48.286 116.286v548.571q0 68 48.286 116.286t116.286 48.286h548.571q68 0 116.286-48.286t48.286-116.286z" />
<glyph unicode="&#xe92b;" glyph-name="tencent-weibo" horiz-adv-x="731" d="M481.143 624q0-45.714-32.571-78t-77.714-32.286q-34.286 0-63.429 20-35.429-38.286-65.714-83.429-141.143-212-115.429-490.857 0.571-12.571-7.143-22t-19.714-10.571h-2.857q-11.429 0-20 7.714t-9.714 19.143q-8 72-2 141.429t16.857 124 30.857 106.286 39.429 88.857 42.286 71.429q34.857 51.429 75.429 94.286-9.143 20-9.143 44 0 45.714 32.286 78t78 32.286 78-32.286 32.286-78zM698.857 617.714q0-90.286-44.571-166.857t-121.429-121.143-167.143-44.571q-36.571 0-74.857 8-12 2.857-18.571 13.429t-3.714 22.571q2.857 11.429 13.143 18t22.286 4.286q29.143-7.429 61.714-7.429 55.429 0 106.286 21.714t87.429 58.286 58.286 87.429 21.714 106.286-21.714 106.286-58.286 87.429-87.429 58.286-106.286 21.714-106.286-21.714-87.429-58.286-58.286-87.429-21.714-106.286q0-65.143 29.714-124.571 5.714-11.429 2-22.857t-14.571-17.143-22.571-1.714-17.429 14.857q-36.571 70.286-36.571 151.429 0 68 26.571 129.714t71.143 106.286 106.286 70.857 129.143 26.286q90.286 0 167.143-44.571t121.429-121.429 44.571-167.143z" />
<glyph unicode="&#xe92c;" glyph-name="qq" d="M154.286 490.286q-4.571 10.857-4.571 29.714 0 11.429 6.286 28t13.714 25.714q-0.571 12.571 4.286 30.286t12.857 24.571q0 79.429 52.857 164.857t124.286 119.714q79.429 37.714 185.143 37.714 76 0 152-31.429 28-12 51.429-27.429t40.571-32 31.429-38.857 24-42.286 18.571-48.286 14.571-51.143 12.571-56l0.571-2.857q31.429-47.429 31.429-85.714 0-8-5.143-22.857t-5.143-21.714q0-0.571 0.857-2t2-2.857 1.143-2q44-65.143 68.857-122.571t24.857-119.143q0-24.571-11.143-57.143t-31.714-32.571q-5.143 0-11.143 4.286t-10.857 10-10.857 14.857-9.143 15.143-7.714 14.857-5.143 10q-0.571 0.571-1.714 0.571l-2.857-2.286q-33.714-88-75.429-127.429 11.429-11.429 35.143-22t39.429-23.714 20.286-37.143q-1.143-2.286-2.286-9.143t-4-10.286q-36.571-55.429-172.571-55.429-30.286 0-63.143 5.143t-56 11.429-59.714 17.143q-8.571 2.857-13.143 4-8 2.286-26.286 2.571t-22.857 0.857q-23.429-25.714-72.857-37.143t-96.286-11.429q-20 0-39.429 0.857t-53.143 5.143-57.714 11.714-42.571 22.857-18.571 36.571q0 22.857 5.714 34t23.429 27.714q6.286 1.143 23.143 7.429t28.286 6.857q2.286 0 8 1.143 1.143 1.143 1.143 2.286l-1.143 1.714q-27.429 6.286-61.714 60.286t-41.714 89.429l-2.857 1.714q-2.286 0-6.857-11.429-10.286-23.429-31.143-42.571t-44.286-21.429h-0.571q-2.286 0-3.429 2.571t-2.857 3.143q-13.143 30.857-13.143 57.143 0 157.143 144 266.286z" />
<glyph unicode="&#xe92d;" glyph-name="wechat" horiz-adv-x="1170" d="M331.429 687.428q0 23.429-14.286 37.714t-37.714 14.286q-24.571 0-43.429-14.571t-18.857-37.429q0-22.286 18.857-36.857t43.429-14.571q23.429 0 37.714 14t14.286 37.429zM756 397.714q0 16-14.571 28.571t-37.429 12.571q-15.429 0-28.286-12.857t-12.857-28.286q0-16 12.857-28.857t28.286-12.857q22.857 0 37.429 12.571t14.571 29.143zM621.143 687.428q0 23.429-14 37.714t-37.429 14.286q-24.571 0-43.429-14.571t-18.857-37.429q0-22.286 18.857-36.857t43.429-14.571q23.429 0 37.429 14t14 37.429zM984 397.714q0 16-14.857 28.571t-37.143 12.571q-15.429 0-28.286-12.857t-12.857-28.286q0-16 12.857-28.857t28.286-12.857q22.286 0 37.143 12.571t14.857 29.143zM832 624.571q-17.714 2.286-40 2.286-96.571 0-177.714-44t-127.714-119.143-46.571-164.286q0-44.571 13.143-86.857-20-1.714-38.857-1.714-14.857 0-28.571 0.857t-31.429 3.714-25.429 4-31.143 6-28.571 6l-144.571-72.571 41.143 124.571q-165.714 116-165.714 280 0 96.571 55.714 177.714t150.857 127.714 207.714 46.571q100.571 0 190-37.714t149.714-104.286 78-148.857zM1170.286 304q0-66.857-39.143-127.714t-106-110.571l31.429-103.429-113.714 62.286q-85.714-21.143-124.571-21.143-96.571 0-177.714 40.286t-127.714 109.429-46.571 150.857 46.571 150.857 127.714 109.429 177.714 40.286q92 0 173.143-40.286t130-109.714 48.857-150.571z" />
<glyph unicode="&#xe92e;" glyph-name="slideshare" d="M498.857 528q0-47.429-36.286-81.429t-87.143-34-87.143 34-36.286 81.429q0 48 36.286 81.714t87.143 33.714 87.143-33.714 36.286-81.714zM785.714 528q0-47.429-36-81.429t-87.429-34q-50.857 0-87.143 34t-36.286 81.429q0 48 36.286 81.714t87.143 33.714q51.429 0 87.429-33.714t36-81.714zM914.286 425.143v381.143q0 49.714-18.286 70.571t-63.429 20.857h-635.429q-47.429 0-64.286-19.429t-16.857-72v-384.571q24.571-13.143 50.571-22.857t46.286-16 46.286-10.571 40.571-6.286 40-2.286 33.429-0.286 32.286 1.143 25.429 1.143q38.857 0.571 54.286-15.429 3.429-3.429 5.714-5.143 14.857-14.286 34.857-29.143 4 52 67.429 49.714 2.857 0 20.857-0.857t24.571-1.143 26-0.571 30.286 0.571 31.143 2.571 34.857 4.857 35.429 7.714 38.286 11.143 38.571 15.429 41.143 19.714zM1007.429 428q-69.143-85.143-212.571-144 48-162.857-13.143-265.714-37.714-64.571-104.571-84.571-59.429-18.286-104 8.571-49.143 29.143-46.857 93.714l-0.571 186.286v0.571q-4.571 1.143-14 3.429t-13.429 2.857l-0.571-193.143q2.286-65.143-47.429-93.714-45.143-26.857-104.571-8.571-66.857 20.571-104 85.714-60 102.857-12.571 264.571-143.429 58.857-212.571 144-14.286 21.143-2.286 36t34.286-0.571q1.714-1.143 6.286-4t6.286-4.571v396.571q0 41.143 26.857 70.286t65.143 29.143h718.286q38.286 0 65.143-29.143t26.857-70.286v-396.571l12 8.571q22.286 15.429 34.286 0.571t-2.286-36z" />
<glyph unicode="&#xe92f;" glyph-name="twitch" d="M512 702.857v-248h-82.857v248h82.857zM739.429 702.857v-248h-82.857v248h82.857zM739.429 268.571l144.571 145.143v454.286h-682.286v-599.429h186.286v-124l124 124h227.429zM966.857 950.857v-578.857l-248-248h-186.286l-124-124h-124v124h-227.429v661.714l62.286 165.143h847.429z" />
<glyph unicode="&#xe930;" glyph-name="yelp" horiz-adv-x="879" d="M441.714 197.143v-72.571q-0.571-166.857-3.429-174.286-6.857-18.286-29.143-22.857-30.857-5.143-103.714 21.714t-92.857 50.857q-7.429 8.571-9.714 20.571-0.571 6.857 2.286 14.857 2.286 5.714 19.429 26.857t103.429 123.429q0.571 0 34.286 40 8.571 10.857 22.571 14t28.286-2q13.714-5.714 21.429-16.571t7.143-24zM356.571 340.571q-1.714-31.429-29.714-40l-68.571-22.286q-157.143-50.286-166.857-50.286-20 1.143-30.857 20.571-6.857 14.286-9.714 42.857-4.571 43.429 0.571 95.143t17.143 71.143 32 18.286q7.429 0 115.429-44 40-16.571 65.714-26.857l48-19.429q13.143-5.143 20.286-17.429t6.571-27.714zM828.571 170.857q-4-30.857-52.286-92t-77.429-72.571q-21.143-8-36 4-8 5.714-105.143 164l-26.857 44q-8 12-6.571 26.286t11.143 26.286q20 24.571 47.429 14.857 0.571-0.571 68-22.857 116-37.714 138.286-45.429t26.857-11.714q16-12.571 12.571-34.857zM444.571 532q2.857-58.286-30.857-69.714-33.143-9.714-65.143 40.571l-216 341.714q-4.571 20 10.857 35.429 23.429 24.571 118.571 51.143t128.286 18q22.857-5.714 28-25.714 1.714-10.286 12.571-174.571t13.714-216.857zM822.857 470.286q1.714-22.286-14.857-33.714-8.571-5.714-188-49.143-38.286-8.571-52-13.143l0.571 1.143q-13.143-3.429-26.286 2.286t-21.143 18.286q-17.143 26.857 0 49.714 0.571 0.571 42.857 58.286 71.429 97.714 85.714 116.571t19.429 22.286q16 10.857 37.143 1.143 27.429-13.143 70.286-76.286t46.286-95.714v-1.714z" />
<glyph unicode="&#xe931;" glyph-name="lastfm" d="M738.286 548.571q0-3.429 5.714-23.429 5.714-16.571 14.286-28.286t23.429-19.429 25.143-11.429 31.429-9.429q185.714-52 185.714-189.714 0-83.429-60.286-138.571t-145.429-55.143q-33.714 0-63.714 10.571t-52.286 26-44 42.571-36 50-30.571 59.143-24.857 58.857-22.571 60.857-20.286 54.286q-18.286 46.286-35.143 76.286t-42 55.143-59.429 36.571-81.143 11.429q-54.857 0-104.571-31.714t-78.857-82.571-29.143-105.714q0-91.429 60.857-159.714t150.571-68.286q101.143 0 147.429 54.286 32 36 47.429 66.286l48-86.857q-8.571-19.429-25.143-40l0.571-0.571q-74.857-86.857-221.714-86.857-84 0-154 45.143t-108.857 118.571-38.857 156.857q0 60 24.857 117.714t66.286 100.857 98.286 69.429 116.857 26.286q49.714 0 90.857-10.857t70.571-28.571 54.286-45.714 41.429-56.571 33.429-66.857 28.857-71.143 28.571-74.571 31.429-72.571q54.857-114.286 133.143-114.286 46.286 0 79.143 27.714t32.857 73.429q0 24-10.857 41.143t-28.857 26.286-41.429 18-48.286 15.429-50 19.429-46.286 29.714-37.143 46.857-22.286 70q-1.714 9.143-1.714 18.857 0 62.857 50 109.714t113.429 44.571q44.571-1.714 68.857-8.286t51.714-30.571h-0.571q6.857-6.286 13.143-14t14.857-20.571 10.857-15.714l-73.714-56.571q-14.857 28-30.857 40v0.571q-13.143 12-55.429 12-28 0-48-18.857t-20-47.429z" />
<glyph unicode="&#xe932;" glyph-name="angellist" horiz-adv-x="731" d="M544.571 734.857l-65.143-187.429 66.857-12q94.286 257.714 94.286 296 0 32-21.714 32-32.571 0-74.286-128.571zM373.714 342.286l18.857-50.286q21.143 24 40.571 38.286l-18.857 3.143t-22 4-18.571 4.857zM206.857 854.286q0-56 90.857-297.714 10.286 5.714 28 5.714 8.571 0 42.857-2.857l-69.143 200.571q-42.857 125.714-70.286 125.714-10.857 0-16.571-10t-5.714-21.429zM161.714 420.571q0-20.571 29.429-68t67.143-87.429 57.143-40q8 0 14.571 7.429t6.571 15.429q0 13.714-18.286 58.286-7.429 18.286-18.286 41.143t-27.143 50.857-35.143 46.286-35.429 18.286q-11.429 0-26-15.429t-14.571-26.857zM71.429 229.143q0-23.429 14.286-59.429 33.714-82.857 104.857-129.714t160.857-46.857q129.714 0 218.286 97.143 86.857 96.571 86.857 244 0 24.571-0.571 38.286t-6.571 35.429-17.429 32q-32 28-120.857 43.143t-154.571 15.143q-21.143 0-28-6.286-6.857-2.857-6.857-20 0-19.429 12.286-34.286t31.714-22.857 44.286-13.429 50-6.571 48.571-2.286 40 0h13.143q13.714 0 22.857-10.857 8.571-10.857 10.857-31.429-16-16-54.857-30.857-34.857-12.571-53.143-26.286-36.571-26.286-62-65.143t-25.429-78.286q0-17.714 10.571-50.571t10.571-50l-1.714-6.857q-2.286-6.857-2.286-8-78.286 5.714-83.429 123.429-4.571-1.143-23.429-1.143 1.143-4 1.143-12 0-30.286-23.143-51.143t-54-20.857q-46.857 0-95.143 44.571t-48.286 90.857q0 19.429 18.857 38.286 29.714-36.571 34.286-43.429 44-59.429 76-59.429 6.857 0 15.143 4.857t8.286 11.714q0 19.429-50 82.857t-66.571 63.429q-24.571 0-40-25.429t-15.429-51.714zM6.286 224q0 57.714 24.286 93.143t78 50.286q-16 42.286-16 59.429 0 35.429 34.857 70.286t69.714 34.857q16.571 0 40-8.571-93.143 264-93.143 324 0 45.714 23.429 74.571t68 28.857q74.857 0 185.714-332 3.429-9.714 4.571-13.143 3.429 9.143 16.571 45.429t24.857 67.714 30.857 72.857 36.857 70.286 40.286 49.429 43.714 20.571q40.571 0 64-28t23.429-69.714q0-61.714-90.857-314.286 34.857-8.571 57.429-26.286t33.429-44.571 14.857-53.429 4-63.143q0-85.714-26.857-160t-75.429-128.571-120.571-85.714-158.857-31.429q-63.429 0-127.429 24-85.143 32.571-147.429 109.429t-62.286 163.714z" />
<glyph unicode="&#xe933;" glyph-name="leanpub" horiz-adv-x="1170" d="M1081.714 726.857l88.571-726.857q-74.857 0-146.857 32.571-114.286 52-224.571 52-129.143 0-213.714-84.571-84.571 84.571-213.714 84.571-110.286 0-224.571-52-73.143-32.571-144-32.571h-2.857l88.571 726.857q128 72.571 275.429 72.571 133.143 0 221.143-60.571 88 60.571 221.143 60.571 147.429 0 275.429-72.571zM798.857 162.857q73.714 0 132.571-16.286t148.571-53.429l-70.857 583.429q-97.714 44.571-210.286 44.571-128 0-213.714-80.571-85.714 80.571-213.714 80.571-112.571 0-210.286-44.571l-70.857-583.429q60 24.571 94.571 37.143t84.857 22.571 101.714 10q115.429 0 213.714-61.714 98.286 61.714 213.714 61.714zM821.714 182.286l-31.429 518.286q-120.571-2.286-205.143-88.571-86.857 88.571-213.714 88.571-100.571 0-192-37.714l-65.143-537.714q70.857 29.143 130.571 43.429t126.571 14.286q119.429 0 213.714-58.286 98.286 61.143 213.714 58.286z" />
<glyph unicode="&#xe934;" glyph-name="whatsapp" horiz-adv-x="878" d="M562.857 394.286q7.429 0 55.714-25.143t51.143-30.286q1.143-2.857 1.143-8.571 0-18.857-9.714-43.429-9.143-22.286-40.571-37.429t-58.286-15.143q-32.571 0-108.571 35.429-56 25.714-97.143 67.429t-84.571 105.714q-41.143 61.143-40.571 110.857v4.571q1.714 52 42.286 90.286 13.714 12.571 29.714 12.571 3.429 0 10.286-0.857t10.857-0.857q10.857 0 15.143-3.714t8.857-15.714q4.571-11.429 18.857-50.286t14.286-42.857q0-12-19.714-32.857t-19.714-26.571q0-4 2.857-8.571 19.429-41.714 58.286-78.286 32-30.286 86.286-57.714 6.857-4 12.571-4 8.571 0 30.857 27.714t29.714 27.714zM446.857 91.428q72.571 0 139.143 28.571t114.571 76.571 76.571 114.571 28.571 139.143-28.571 139.143-76.571 114.571-114.571 76.571-139.143 28.571-139.143-28.571-114.571-76.571-76.571-114.571-28.571-139.143q0-116 68.571-210.286l-45.143-133.143 138.286 44q90.286-59.429 197.143-59.429zM446.857 881.143q87.429 0 167.143-34.286t137.429-92 92-137.429 34.286-167.143-34.286-167.143-92-137.429-137.429-92-167.143-34.286q-111.429 0-208.571 53.714l-238.286-76.571 77.714 231.429q-61.714 101.714-61.714 222.286 0 87.429 34.286 167.143t92 137.429 137.429 92 167.143 34.286z" />
<glyph unicode="&#xe935;" glyph-name="medium" d="M341.143 710.286v-670.286q0-14.286-7.143-24.286t-20.857-10q-9.714 0-18.857 4.571l-265.714 133.143q-12 5.714-20.286 19.143t-8.286 26.571v651.429q0 11.429 5.714 19.429t16.571 8q8 0 25.143-8.571l292-146.286q1.714-1.714 1.714-2.857zM377.714 652.571l305.143-494.857-305.143 152v342.857zM1024 642.286v-602.286q0-14.286-8-23.143t-21.714-8.857-26.857 7.429l-252 125.714zM1022.286 710.857q0-1.714-146.571-239.714t-171.714-278.571l-222.857 362.286 185.143 301.143q9.714 16 29.714 16 8 0 14.857-3.429l309.143-154.286q2.286-1.143 2.286-3.429z" />
<glyph unicode="&#xe936;" glyph-name="y-combinator" horiz-adv-x="878" d="M462.286 377.143l152 285.143h-64l-89.714-178.286q-13.714-27.429-25.143-52.571l-24 52.571-88.571 178.286h-68.571l150.286-281.714v-185.143h57.714v181.714zM877.714 877.714v-877.714h-877.714v877.714h877.714z" />
<glyph unicode="&#xe937;" glyph-name="tripadvisor" horiz-adv-x="1317" d="M372 381.143q0-22.286-15.714-38t-37.429-15.714q-22.286 0-38 15.714t-15.714 38q0 21.714 15.714 37.429t38 15.714q21.714 0 37.429-15.714t15.714-37.429zM1031.429 381.714q0-22.286-15.714-38t-38-15.714-38 15.714-15.714 38 15.714 37.714 38 15.429 38-15.429 15.714-37.714zM437.143 381.143q0 45.143-32.286 77.714t-78 32.571-78-32.286-32.286-78 32.286-78 78-32.286 78 32.286 32.286 78zM1096 381.714q0 45.714-32.286 78t-78 32.286q-45.143 0-77.714-32.286t-32.571-78 32.286-78 78-32.286 78 32.286 32.286 78zM485.714 381.143q0-66.286-46.571-112.857t-112.286-46.571q-66.286 0-112.857 46.857t-46.571 112.571 46.857 112.286 112.571 46.571 112.286-46.571 46.571-112.286zM1145.143 381.714q0-65.714-46.571-112.286t-112.857-46.571q-65.714 0-112.286 46.571t-46.571 112.286 46.571 112.286 112.286 46.571q66.286 0 112.857-46.571t46.571-112.286zM594.286 380q0 109.143-77.429 186.571t-186.571 77.429q-71.429 0-132-35.429t-96-96.286-35.429-132.286 35.429-132.286 96-96.286 132-35.429q109.143 0 186.571 77.429t77.429 186.571zM976 707.428q-145.143 63.429-317.714 63.429-182.286 0-327.429-62.857 66.857 0 127.429-26t104.286-70 69.714-104.571 26-127.429q0 65.714 24.857 125.429t67.429 103.143 101.429 70.286 124 28.571zM1249.714 380q0 109.143-77.143 186.571t-186.286 77.429-186.571-77.429-77.429-186.571 77.429-186.571 186.571-77.429 186.286 77.429 77.143 186.571zM1097.714 703.428h218.857q-25.143-29.143-42.857-65.429t-22.857-65.429q62.857-86.286 62.857-192.571 0-89.143-44-164.571t-119.429-119.143-164-43.714q-76 0-142.286 32t-112 88.571q-26.857-32-73.714-102.286-6.286 12.571-30.571 47.143t-42.571 55.714q-45.714-56.571-112.286-88.857t-142.571-32.286q-88.571 0-164 43.714t-119.429 119.143-44 164.571q0 106.286 62.857 192.571-5.143 29.143-22.857 65.429t-42.857 65.429h208.571q85.143 57.143 202.857 89.429t246.857 32.286q128 0 240.571-32t198.857-89.714z" />
<glyph unicode="&#xe938;" glyph-name="odnoklassniki" horiz-adv-x="731" d="M365.714 432.571q-107.429 0-183.429 76t-76 182.857q0 107.429 76 183.429t183.429 76 183.429-76 76-183.429q0-106.857-76-182.857t-183.429-76zM365.714 819.428q-52.571 0-90-37.429t-37.429-90.571q0-52.571 37.429-90t90-37.429 90 37.429 37.429 90q0 53.143-37.429 90.571t-90 37.429zM664.571 401.143q7.429-15.429 8.571-28.286t-2.571-23.143-15.143-22-24.286-21.143-35.143-23.714q-65.714-41.714-180-53.714l41.714-41.143 152.571-152.571q17.143-17.714 17.143-42.286t-17.143-41.714l-6.857-7.429q-17.714-17.143-42.286-17.143t-42.286 17.143q-38.286 38.857-152.571 153.143l-152.571-153.143q-17.714-17.143-42.286-17.143t-41.714 17.143l-6.857 7.429q-17.714 17.143-17.714 41.714t17.714 42.286l193.714 193.714q-116 12-181.143 53.714-22.286 14.286-35.143 23.714t-24.286 21.143-15.143 22-2.571 23.143 8.571 28.286q5.714 11.429 16 20t24 12.571 32-1.143 37.143-20q2.857-2.286 8.571-6.286t24.571-14 39.429-17.429 52.571-13.714 64.571-6.286q52 0 99.429 14.571t68.571 28.857l21.714 14.286q18.857 14.857 37.143 20t32 1.143 24-12.571 16-20z" />
<glyph unicode="&#xe939;" glyph-name="500px" horiz-adv-x="814" d="M800.571 66.857l-3.429-3.429q-64.571-65.143-148-100-88-36.571-181.143-36.571-94.286 0-181.143 36.571-84.571 36-148 100-64.571 64-100 147.429-24 58.857-30.857 108-2.286 16 27.429 20.571 29.143 4.571 32-11.429 0.571-0.571 0.571-2.286 10.286-51.429 26.286-90.857 28.571-70.857 86.857-129.143 56-56 129.143-86.857 75.429-32 157.714-32 81.714 0 157.714 32 73.143 31.429 128.571 86.857l3.429 3.429q5.714 5.714 14.286 3.429 6.857-1.714 18.857-12.571 20.571-21.143 9.714-33.143zM530.857 418.286l-37.714-37.714 36-36q12-12-4-28-9.714-9.714-18.286-9.714-5.714 0-10.857 5.714l-35.429 34.857-37.714-37.714q-2.857-2.857-8.571-2.857-8.571 0-17.714 9.143l-1.143 1.143q-10.286 8.571-10.286 16.571 0 4 4.571 9.714l37.714 37.143-37.714 37.714q-9.143 9.143 8 25.714 10.286 10.286 17.714 10.286 3.429 0 7.429-2.857l37.143-37.714 37.143 37.143q10.286 9.714 27.429-7.429 15.429-15.429 6.286-25.143zM800 385.714q0-67.429-26.286-130.286-25.714-60-72-106.286-45.714-45.714-106.857-72t-130.286-26.286-130.286 26.286-106.857 72q-46.857 46.857-71.429 106.286-8.571 18.286-8.571 22.857h-0.571q-5.143 15.429 24.571 25.143 28.571 9.143 34.286-6.857 21.143-56.571 55.429-95.429h0.571v194.857q1.714 77.714 58.286 132.571 60 58.857 144.571 58.857 84 0 143.429-58.857t59.429-142.286q0-84-59.714-143.429t-143.143-59.429q-33.143 0-64 9.143-16 6.286-7.429 34.857 9.143 29.143 25.143 24.571l8-1.714q8-1.714 18.571-3.429t17.429-1.714q59.429 0 100.571 40.857t41.143 99.714q0 57.714-41.143 97.714-40.571 40.571-100 40.571-61.143 0-101.714-45.714-36.571-41.143-36.571-91.429v-236q62.857-38.286 138.286-38.286 54.857 0 105.714 20.857t89.143 59.143 59.143 88.571 20.857 104.571q0 113.143-80.571 193.714-80 80-193.714 80-114.286 0-194.286-80-30.286-30.286-44-49.714l-1.143-1.143q-4.571-6.286-7.429-8.857t-12.286-5.429-22 1.714q-12 2.857-20.857 9.429t-8.857 15.143v388.571q0 8.571 6 15.143t15.714 6.571h501.143q17.143 0 17.143-31.429t-17.143-31.429h-463.429v-276h0.571q22.857 24 58.286 48t61.714 34.857q62.286 26.286 132 26.286 69.143 0 130.286-26.286t106.857-72q46.286-46.286 72-106.286 26.286-64 26.286-130.857zM782.286 717.714q5.143-4.571 5.143-10.286t-3.143-10.286-9.429-12q-14.857-14.857-22.286-14.857-5.143 0-9.143 4-60.571 52-118.286 76-73.143 32-157.714 32-76 0-149.714-28-15.429-5.714-25.714 21.143-5.143 14.286-4.571 21.714 1.714 9.143 9.143 11.429 74.286 32.571 170.857 32.571 93.714 0 180.571-36.571 78.286-33.143 134.286-86.857z" />
<glyph unicode="&#xe93a;" glyph-name="houzz" horiz-adv-x="585" d="M292.571 270.286l292.571 168.571v-337.714l-292.571-169.143v338.286zM0 438.857v-337.714l292.571 169.143zM292.571 945.714v-337.714l-292.571-169.143v337.714zM292.571 608l292.571 168.571v-337.714z" />
<glyph unicode="&#xe93b;" glyph-name="vimeo" horiz-adv-x="1029" d="M976.571 654.857q-5.714-134.857-189.714-372-190.286-246.286-321.143-246.286-81.143 0-137.143 150.286-25.143 91.429-75.429 275.429-41.143 149.714-89.714 149.714-10.286 0-72.571-43.429l-44 56q13.714 12 61.714 55.143t74.286 66q89.143 78.857 137.714 83.429 54.286 5.143 87.429-31.714t46.286-116.286q25.143-164 37.714-213.143 31.429-142.286 68.571-142.286 29.143 0 88 92 57.714 92 62.286 140.571 7.429 79.429-62.286 79.429-32.571 0-69.143-14.857 68.571 224.571 262.286 218.286 143.429-4.571 134.857-186.286z" />
<glyph unicode="&#xe93c;" glyph-name="reddit" d="M1024 467.428q0-33.143-16.857-60.286t-45.429-41.429q6.857-26.286 6.857-54.857 0-88.571-60.857-164t-166-119.143-228.571-43.714-228.286 43.714-165.714 119.143-60.857 164q0 26.857 6.286 53.714-29.143 14.286-46.857 42t-17.714 60.857q0 46.857 33.143 80.286t80.571 33.429q48.571 0 82.857-36 124.571 86.857 294.286 92.571l66.286 297.714q1.714 7.429 8.571 12t14.857 2.857l210.857-46.286q10.286 21.143 30.857 34t45.143 12.857q35.429 0 60.571-24.857t25.143-60.286-25.143-60.571-60.571-25.143-60.286 24.857-24.857 60.286l-190.857 42.286-59.429-269.714q171.429-5.143 296.571-91.429 33.143 34.857 81.714 34.857 47.429 0 80.571-33.429t33.143-80.286zM238.857 353.714q0-35.429 24.857-60.571t60.286-25.143 60.571 25.143 25.143 60.571-25.143 60.286-60.571 24.857q-34.857 0-60-25.143t-25.143-60zM701.714 150.857q6.286 6.286 6.286 14.857t-6.286 14.857q-5.714 5.714-14.286 5.714t-14.857-5.714q-23.429-24-69.143-35.429t-91.429-11.429-91.429 11.429-69.143 35.429q-6.286 5.714-14.857 5.714t-14.286-5.714q-6.286-5.714-6.286-14.571t6.286-15.143q24.571-24.571 67.714-38.857t70-16.857 52-2.571 52 2.571 70 16.857 67.714 38.857zM700 268q35.429 0 60.286 25.143t24.857 60.571q0 34.857-25.143 60t-60 25.143q-35.429 0-60.571-24.857t-25.143-60.286 25.143-60.571 60.571-25.143z" />
<glyph unicode="&#xe93d;" glyph-name="bandcamp" horiz-adv-x="1499" d="M281.91 663.613c185.792 0 371.594 0 557.385 0 0-51.181 0-102.361 0-153.545 23.949 23.278 48.902 49.936 107.269 44.169 87.386-8.631 126.606-98.658 119.89-187.196-2.751-36.264-17.522-79.702-44.169-105.169-30.122-28.784-97.872-47.772-153.545-16.827-14.878 8.27-22.95 19.625-33.656 35.756 0-14.023 0-28.044 0-42.067-21.032 0-42.067 0-63.099 0 0 139.521 0 279.043 0 418.564-76.196-131.021-152.386-281.218-229.264-418.564-163.359 0-326.721 0-490.079 0 74.844 143.206 152.509 283.591 229.264 424.878zM856.121 472.212c-47.139-62.282-12.868-225.097 94.651-182.99 79.463 31.12 65.483 220.192-39.964 210.332-23.439-2.189-41.755-10.257-54.686-27.342zM1373.541 442.762c-21.735 0-43.47 0-65.205 0-1.528 52.785-64.89 68.352-103.063 50.481-77.010-36.046-59.374-238.034 54.686-206.128 27.386 7.662 41.792 31.306 48.377 67.309 21.735 0 43.47 0 65.205 0-3.481-79.213-69.464-128.857-147.233-124.098-70.504 4.313-126.336 60.771-132.509 140.922-7.571 98.277 43.959 195.72 168.268 182.99 63.302-6.488 104.987-43.363 111.475-111.479z" />
<glyph unicode="&#xe93e;" glyph-name="beme" d="M148.796 876.327c148.056-1.704 310.202 2.264 458.481 0 141.712-2.165 239.236-82.32 249.121-209.365 8.588-110.384-55.272-189.876-145.761-214.666 100.452-21.899 153.391-91.314 164.315-202.742 0-6.626 0-13.254 0-19.879-13.303-144.376-98.135-217.237-245.142-227.919-160.332 0-320.677 0-481.010 0-0.004 291.526-0.004 583.047-0.004 874.568z" />
<glyph unicode="&#xe93f;" glyph-name="discord" horiz-adv-x="1317" d="M938.865 13.717c0 0-36.335 43.375-66.61 81.7 132.2 37.315 182.667 120.025 182.667 120.025-41.379-27.222-80.742-46.399-116.057-59.498-50.462-21.192-98.91-35.315-146.352-43.384-96.881-18.158-185.697-13.108-261.391 1.014-57.526 11.089-106.983 27.227-148.362 43.369-23.217 9.088-48.443 20.172-73.674 34.295-3.024 2.014-6.054 3.034-9.084 5.054-2.014 1-3.024 2.014-4.034 3.014-18.167 10.088-28.261 17.148-28.261 17.148s48.443-80.684 176.619-119.015c-30.281-38.329-67.62-83.719-67.62-83.719-223.046 7.059-307.819 153.305-307.819 153.305 0 324.793 145.333 588.058 145.333 588.058 145.328 108.921 283.598 105.901 283.598 105.901l10.088-12.104c-181.657-52.448-265.43-132.138-265.43-132.138s22.207 12.104 59.551 29.251c107.989 47.409 193.776 60.522 229.1 63.546 6.054 1.004 11.103 2.014 17.153 2.014 61.566 8.069 131.205 10.088 203.864 2.014 95.89-11.094 198.834-39.339 303.789-96.833 0 0-79.733 75.65-251.311 128.098l14.133 16.138c0 0 138.27 3.024 283.606-105.907 0 0 145.324-263.261 145.324-588.058 0 0.010-85.777-146.242-308.819-153.296zM469.556 484.755c-57.531 0-102.945-50.433-102.945-111.961s46.423-111.965 102.945-111.965c57.531 0 102.939 50.433 102.939 111.965 1.010 61.522-45.409 111.961-102.939 111.961zM837.936 484.755c-57.536 0-102.945-50.433-102.945-111.961s46.423-111.965 102.945-111.965c57.517 0 102.949 50.433 102.949 111.965 0 61.522-45.427 111.961-102.949 111.961z" />
<glyph unicode="&#xe940;" glyph-name="strava" horiz-adv-x="845" d="M560.99-73.141l-226.009 442.919h134.096l-117.842 235.68-117.842-235.68h-178.792l296.634 581.078 300.699-581.078h138.158l-229.101-442.919zM471.204 369.778l89.786-179.646 89.782 179.646h-179.568z" />
<glyph unicode="&#xe941;" glyph-name="quora" horiz-adv-x="910" d="M65.014 481.863q0 107.077 52.222 198.356t141.746 144.378 195.722 53.1q161.494 0 276.030-115.854t114.538-279.98q0-104.444-50.028-193.528t-135.162-142.624q0.878-1.756 3.072-5.704t10.094-14.042 18.432-19.309 28.964-18.87 39.496-14.92v-66.704q-31.596-6.144-58.804-6.144-43.884 0-74.602 15.798-49.15 25.452-79.869 82.502-42.128-11.41-92.156-11.41-105.322 0-195.284 53.1t-142.184 143.94-52.222 197.917zM258.982 430.081q0-101.811 58.366-174.22t140.868-72.408q22.82 0 45.64 7.022-1.756 2.633-4.828 7.46t-12.726 16.238-20.626 20.626-27.208 17.114-32.036 8.776v77.236q8.776 0.878 17.554 0.878 104.444 0 178.17-78.992 55.294 71.092 55.294 170.27v101.811q0 101.811-58.366 174.22t-140.868 72.408-140.868-72.408-58.366-174.22v-101.811z" />
<glyph unicode="&#xe942;" glyph-name="drupal" horiz-adv-x="951" d="M681.049 735.611c-48.337 29.901-93.798 41.779-139.264 72.090-28.262 19.251-67.174 64.717-99.942 103.629-6.554-62.669-25.395-88.474-47.514-106.496-46.285-36.454-75.776-47.514-115.507-69.222-33.587-17.203-216.678-126.566-216.678-361.267s197.427-407.962 416.973-407.962c219.55 0 409.6 159.334 409.6 400.589s-178.586 350.618-207.667 368.64zM607.321 170.772c14.746 0 29.901-0.819 40.96-8.192 11.055-7.373 17.199-23.757 20.89-32.768s0-14.75-7.373-18.432c-6.558-3.686-7.373-1.638-13.517 9.826-6.558 11.878-11.878 23.761-43.827 23.761s-41.779-11.059-57.344-23.761c-15.565-12.698-20.894-17.199-26.214-9.826s-3.682 14.746 6.558 23.757c9.826 9.011 26.21 23.757 41.775 29.901 15.155 6.554 23.347 5.734 38.093 5.734v0zM456.179 66.734c18.022-14.746 45.466-26.21 103.629-26.21s99.123 16.384 117.555 29.901c8.192 6.554 11.878 0.819 12.698-2.867s2.867-9.011-3.682-15.565c-4.51-4.51-46.285-33.587-95.437-38.093-49.152-4.51-115.507-7.377-155.648 29.082-6.554 6.554-4.506 15.565 0 19.251 4.506 3.682 8.192 6.554 13.517 6.554 5.321-0.004 4.502-0.004 7.369-2.052v0zM241.139 232.622c0.819 70.861 67.174 137.63 151.142 138.445 106.496 0.819 180.224-105.677 233.882-104.858 45.466 0.819 132.71 90.112 175.718 90.112 45.466 0 58.159-47.514 58.159-75.366 0-28.258-9.007-79.053-31.13-111.002-21.709-31.949-35.635-43.827-61.030-41.779-32.768 2.867-98.304 104.862-140.079 106.496-52.838 1.638-167.526-110.182-257.638-110.182-54.477 0-70.861 8.192-89.293 20.066-27.034 18.846-40.55 47.927-39.731 88.068v0z" />
<glyph unicode="&#xe943;" glyph-name="hitbox" horiz-adv-x="914" d="M471.223-73.143l204.8 116.736v130.56l-204.8-84.992zM704.179 587.337l120.324-14.336v-317.952l-120.324-41.984zM457.399 619.081l-219.136-28.16v-388.608l219.136-81.408 218.624 81.408v388.608zM238.263 174.153l204.8-84.992v-162.304l-204.8 116.736zM89.783 573.001l120.32 14.336v-374.272l-120.32 41.984zM457.399 950.857l-194.56-88.064v-240.128l194.56 28.16 194.048-28.16v240.128z" />
<glyph unicode="&#xe944;" glyph-name="telegram" horiz-adv-x="1134" d="M427.99 82.323c22.217 0 32.028 10.156 44.42 22.206l118.468 115.2-147.77 89.108zM443.093 308.807l358.060-264.542c40.86-22.546 70.346-10.866 80.534 37.932l145.748 686.838c14.92 59.826-22.802 86.96-61.898 69.216l-855.839-330.014c-58.424-23.432-58.080-56.024-10.652-70.55l219.632-68.541 508.464 320.778c23.996 14.552 46.026 6.732 27.954-9.318z" />
<glyph unicode="&#xe945;" glyph-name="artstation" horiz-adv-x="1164" d="M83.352 201.033l84.256-145.624c16.594-32.859 50.625-55.397 89.942-55.397h559.186l-116.028 201.025h-617.356zM1080.649 200.004c0 20.127-5.938 38.871-16.103 54.604l-327.635 569.54c-16.911 31.85-50.421 53.553-89.001 53.553h-173.153l506.065-876.836 79.782 138.17c15.733 26.467 20.043 38.18 20.043 60.97zM618.204 343.873l-226.193 391.771-226.193-391.771z" />
<glyph unicode="&#xe946;" glyph-name="blogger" d="M945.612 513.044l-7.312 15.223-12.292 9.642c-16.078 12.592-97.43-0.876-119.364 19.007-15.499 14.346-17.85 40.108-22.554 74.914-8.764 67.582-14.324 71.11-24.842 93.92-38.336 81.35-142.2 142.496-213.586 150.962h-193.412c-152.148 0.002-276.494-124.641-276.494-276.78v-322.706c0-151.86 124.346-276.226 276.494-276.226h317.758c152.138 0 275.605 124.366 276.482 276.227l1.754 223.526-2.63 12.29zM355.756 650.558h153.316c29.256 0 52.968-23.71 52.968-52.68 0-28.948-23.712-52.937-52.968-52.937h-153.316c-29.248 0-52.956 23.988-52.956 52.937-0.002 28.97 23.708 52.68 52.956 52.68zM667.356 228.65h-311.6c-29.248 0-52.956 23.988-52.956 52.66 0 28.968 23.708 52.66 52.956 52.66h311.602c28.992 0 52.68-23.688 52.68-52.66 0-28.67-23.69-52.66-52.682-52.66z" />
<glyph unicode="&#xe947;" glyph-name="cc" d="M511.131 914.278c132.986 0 246.212-46.429 339.589-139.241 44.69-44.705 78.668-95.799 101.875-153.236 23.192-57.453 34.825-118.426 34.825-182.951 0-65.089-11.485-126.078-34.379-182.936-22.925-56.873-56.754-107.12-101.444-150.696-46.399-45.834-99.038-80.942-157.916-105.278-58.849-24.336-119.704-36.504-182.52-36.504s-122.958 12.005-180.41 36.088c-57.438 24.039-108.947 58.849-154.514 104.401s-80.228 96.928-104 154.098-35.657 117.431-35.657 180.826c0 62.831 12.019 123.24 36.073 181.257s59.013 109.943 104.847 155.792c90.554 92.233 201.76 138.379 333.632 138.379zM512.854 828.522c-108.665 0-200.081-37.93-274.233-113.761-37.366-37.93-66.084-80.511-86.171-127.771-20.117-47.261-30.145-96.646-30.145-148.155 0-50.945 10.029-100.048 30.145-147.279 20.102-47.29 48.806-89.455 86.171-126.523 37.351-37.083 79.5-65.356 126.508-84.908 46.963-19.522 96.215-29.283 147.724-29.283 50.93 0 100.286 9.88 148.17 29.699 47.825 19.834 90.94 48.39 129.45 85.74 74.137 72.443 111.191 163.28 111.191 272.539 0 52.639-9.627 102.44-28.867 149.418-19.21 46.978-47.246 88.846-84.002 125.662-76.455 76.41-168.406 114.623-275.941 114.623zM506.897 517.785l-63.692-33.117c-6.805 14.129-15.139 24.054-25.034 29.714-9.91 5.646-19.106 8.483-27.605 8.483-42.432 0-63.678-28.006-63.678-84.047 0-25.465 5.378-45.819 16.12-61.107 10.757-15.288 26.609-22.939 47.558-22.939 27.738 0 47.261 13.594 58.597 40.753l58.567-29.714c-12.45-23.222-29.714-41.466-51.792-54.763-22.048-13.312-46.399-19.953-73.008-19.953-42.447 0-76.707 13-102.737 39.059-26.030 26.030-39.045 62.251-39.045 108.65 0 45.285 13.163 81.209 39.475 107.818 26.312 26.594 59.562 39.906 99.766 39.906 58.879 0.030 101.028-22.895 126.508-68.744zM781.115 517.785l-62.831-33.117c-6.79 14.129-15.154 24.054-25.049 29.714-9.925 5.646-19.418 8.483-28.437 8.483-42.447 0-63.692-28.006-63.692-84.047 0-25.465 5.393-45.819 16.135-61.107s26.579-22.939 47.558-22.939c27.709 0 47.246 13.594 58.552 40.753l59.429-29.714c-13-23.222-30.561-41.466-52.609-54.763-22.078-13.312-46.131-19.953-72.161-19.953-43.026 0-77.391 13-103.123 39.059-25.792 26.030-38.658 62.251-38.658 108.65 0 45.285 13.149 81.209 39.49 107.818 26.297 26.594 59.547 39.906 99.736 39.906 58.864 0.030 100.776-22.895 125.662-68.744z" />
<glyph unicode="&#xe948;" glyph-name="codecamp" horiz-adv-x="1485" d="M316.757-0.647c-22.097 5.276-54.076 33.019-89.534 77.679-71.98 90.656-111.064 192.341-122.573 318.894-2.214 24.358-2.193 85.982 0.040 108.534 10.525 106.326 47.731 197.892 116 285.48 20.906 26.823 55.553 61.96 72.149 73.168 23.48 15.858 38.26 17.141 52.442 4.551 5.785-5.135 7.114-7.524 7.856-14.108 1.394-12.395-4.958-22.079-34.502-52.593-41.286-42.642-60.332-66.382-81.429-101.487-47.909-79.718-68.409-163.554-65.471-267.733 1.565-55.502 7.505-96.414 20.601-141.918 11.796-40.984 25.955-74.028 47.157-110.061 21.288-36.179 39.178-59.071 74.951-95.904 31.385-32.315 39.179-43.539 39.179-56.41 0-12.805-9.038-24.385-21.795-27.927-7.048-1.958-7.527-1.962-15.069-0.163zM1145.202-1.132c-6.678 1.418-18.622 14.264-19.971 21.478-2.17 11.624 4.746 21.977 36.983 55.368 15.864 16.432 35.384 38.031 43.377 47.997 58.485 72.926 90.979 154.072 99.647 248.85 2.672 29.217 1.291 104.498-2.436 132.727-7.806 59.131-22.215 107.505-47.17 158.37-23.881 48.672-48.586 83.195-90.31 126.194-28.019 28.875-36.28 39.419-39.095 49.905-2.76 10.281-0.777 17.914 6.934 26.674 10.576 12.015 22.658 13.087 41.565 3.687 22.886-11.378 52.545-41.090 86.971-87.13 69.265-92.627 104.987-194.527 113.574-323.968 7.294-109.98-19.384-221.306-75.131-313.501-38.48-63.64-97.188-128.851-128.45-142.68-8.171-3.614-19.894-5.373-26.488-3.973zM453.832 65.93c-18.713 5.673-29.562 24.375-25.049 43.184 2.791 11.632 14.468 23.591 25.827 26.451 11.443 2.881 603.422 2.881 614.865 0 11.709-2.949 23.215-14.945 25.774-26.876 3.353-15.637-3.673-31.641-17.327-39.462l-7.218-4.133-306.104-0.289c-168.357-0.161-308.203 0.347-310.769 1.126zM687.008 209.83c-56.848 20.677-104.145 60.973-128.356 109.355-13.46 26.897-21.274 59.476-21.267 88.676 0.009 39.478 15.446 77.095 62.475 152.242 35.029 55.971 40.998 66.172 51.298 87.669 13.707 28.608 18.225 45.597 18.512 69.603 0.274 22.94-3.164 36.549-13.73 54.353-7.5 12.637-24.374 31.659-31.227 35.202-11.168 5.775-13.482 13.62-5.553 18.816 12.542 8.219 46.813 3.007 78.298-11.908 35.625-16.875 61.882-41.108 78.98-72.888 13.179-24.495 18.491-43.266 27.429-96.903 9.919-59.521 19.752-78.406 39.635-76.121 10.537 1.211 17.112 5.209 21.548 13.103 7.067 12.575 4.037 29.786-10.256 58.269-11.678 23.271-10.955 30.303 2.743 26.68 7.095-1.876 30.117-20.681 46.055-37.619 39.879-42.379 59.727-80.882 69.272-134.381 5.006-28.061 5.423-74.591 0.887-98.907-5.724-30.678-17.325-59.635-33.811-84.398-18.384-27.612-56.736-62.548-84.618-77.082-12.591-6.563-16.962-6.961-23.133-2.105-7.677 6.038-6.055 10.236 10.914 28.262 25.497 27.083 38.514 46.337 46.066 68.134 11.652 33.63 5.852 80.518-13.657 110.404-8.080 12.378-19.924 23.293-25.275 23.293-2.929 0-2.443-3.866 2.987-23.76 1.902-6.971 3.46-15.491 3.46-18.933 0-18.204-25.695-31.4-48.329-24.822-18.393 5.348-26.501 22.029-24.065 49.513 0.754 8.493 1.427 23.927 1.497 34.296 0.125 18.284-0.053 19.21-5.841 30.624-11.282 22.249-37.375 45.166-51.423 45.166-6.059 0-6.557-0.367-6.557-4.82 0-2.99 1.681-6.388 4.43-8.953 14.555-13.585 17.294-41.422 6.495-65.996-6.675-15.189-14.201-23.791-39.903-45.608-33.82-28.707-44.717-42.377-51.476-64.569-3.127-10.265-3.449-14.443-2.569-33.254 1.478-31.581 7.914-52.515 22.957-74.668 11.551-17.008 25.075-27.799 43.441-34.662 8.834-3.3 9.805-4.153 9.805-8.596 0-5.152-3.917-8.537-9.693-8.378-1.703 0.047-10.003 2.598-18.444 5.667z" />
<glyph unicode="&#xe949;" glyph-name="etsy" d="M400.626 467.944c0 6.16-0.007 11.050 0 15.947 0.078 89.641 0.154 179.302 0.259 268.951 0.028 19.888 0.63 20.56 20.922 20.576 79.798 0.050 159.615-0.93 239.397 0.479 33.193 0.567 54.139-14.306 68.127-42.019 6.172-12.238 11.578-25.066 15.565-38.165 6.843-22.545 11.875-45.632 18.679-68.171 1.475-4.859 6.804-11.446 11.072-12.042 12.008-1.634 24.393-0.556 37.916-0.556 4.752 77.013 9.433 152.665 14.086 228.2-223.29-19.286-444.503-9.917-666.972-6.211 0-14.306-0.729-27.572 0.479-40.684 0.325-3.515 6.035-8.414 10.061-9.372 16.704-3.889 33.727-6.421 50.606-9.631 39.67-7.574 50.452-20.24 51.112-60.926 1.178-71.862 3-143.742 2.905-215.625-0.171-115.73-1.629-231.441-2.685-347.168-0.056-6.333-1.304-12.678-2.137-19.004-1.777-13.493-9.481-22.611-21.748-27.545-8.135-3.267-16.649-5.95-25.229-7.794-20.895-4.505-41.911-8.388-61.733-12.298 0-17.364 0-32.324 0-47.768 8.74 0 16.11-0.204 23.462 0.028 55.587 1.755 111.185 5.429 166.765 5.104 155.105-0.864 310.194-3.383 465.305-5.309 20.317-0.259 19.536-0.363 21.764 19.438 5.97 53.251 12.661 106.429 19.073 159.615 2.376 19.696 4.781 39.364 7.38 60.845-9.334 0-16.275-0.853-22.919 0.176-15.286 2.349-22.688-4.228-28.351-18.332-12.848-31.885-26.725-63.397-41.905-94.272-18.613-37.802-48.352-63.236-91.799-64.574-71.812-2.186-143.764-3.662-215.548-1.612-46.679 1.324-64.204 23.876-64.186 70.415 0.039 74.861 0.105 149.75 0.221 224.635 0.007 5.752 0.479 11.501 0.732 17.053 2.69 0.74 4.076 1.482 5.442 1.466 50.192-0.941 100.412-1.466 150.581-3.125 26.671-0.873 47.845-11.336 55.34-39.743 3.267-12.337 6.287-24.735 9.279-37.142 8.366-34.524 8.331-34.062 43.676-33.804 12.018 0.081 14.593 4.544 14.636 15.711 0.286 84.13 1.207 168.261 1.898 252.389 0.074 7.046 0.010 14.079 0.010 21.909-13.459 0-25.295-0.633-37.032 0.204-9.314 0.671-13.171-3.251-15.067-11.743-4.813-21.544-9.785-43.071-15.342-64.415-7.398-28.467-17.903-37.084-47.394-39.518-21.546-1.781-43.12-3.911-64.728-4.389-33.336-0.699-66.708-0.144-101.985-0.144z" />
<glyph unicode="&#xe94a;" glyph-name="goodreads" horiz-adv-x="1061" d="M728.749 749.955c0 35.265 0 70.528 0 105.793 25.282 0 50.568 0 75.85 0 0-132.094 0-283.984 0-423.172 0-145.607 6.314-280.388-61.879-359.299-44.201-51.15-118.986-78.175-211.584-77.849-138.136 0.489-241.432 59.538-255.502 187.634 25.284 0 50.568 0 75.853 0 8.133-114.177 181.028-155.408 285.443-101.801 88.535 45.453 97.2 164.13 91.822 291.429-40.553-67.955-93.084-125.487-197.613-125.755-139.558-0.353-231.042 74.994-263.487 197.615-54.575 206.264 38.905 414.555 237.532 429.163 120.98 8.899 179.725-51.098 223.566-123.759zM359.469 702.049c-6.874-13.587-14.596-34.75-21.956-67.868-26.463-119.083 7.931-236.377 83.835-289.435 65.699-45.927 165.029-44.757 227.556 7.985 17.564 14.815 37.879 39.994 49.902 63.876 50.984 101.256 28.985 257.304-25.95 327.36-33.374 42.559-87.11 73.385-169.669 63.876-73.852-8.505-118.833-56.589-143.718-105.793z" />
<glyph unicode="&#xe94b;" glyph-name="imdb" horiz-adv-x="1184" d="M151.3 654.259c0-141.434 0-282.874 0-424.302-36.743 0-73.489 0-110.23 0 0 141.434 0 282.874 0 424.302 36.743 0 73.489 0 110.23 0zM203.837 654.259c47.552 0 95.099 0 142.652 0 10.508-64.874 18.38-132.375 28.774-197.363 8.454 65.709 17.065 131.258 25.128 197.363 47.957 0 95.912 0 143.866 0-0.267-141.312 0.538-283.675-0.404-424.302-31.744 0.267-64.572-0.538-95.641 0.404 0.145 93.244-0.404 184.363-0.404 275.981 0 3.424 0.516 6.3-0.404 8.104-9.545-71.229-18.492-142.702-28.369-213.569-3.308-23.716-6.1-47.456-10.134-70.923-22.831 0-45.66 0-68.488 0-13.048 93.126-26.318 186.037-40.119 278.41 0-92.802 0-185.606 0-278.41-32.015 0.267-65.111-0.538-96.455 0.404 0 141.293 0 282.603 0 423.896zM898.562 654.259c35.394 0 70.786 0 106.178 0 0-33.097 0-66.192 0-99.288 0.697-1.468 1.476 0.687 1.622 0.809 4.268 3.826 8.578 8.737 13.78 12.559 16.731 12.3 43.011 19.658 72.142 13.372 16.136-3.483 29.447-10.988 37.685-22.697 8.479-12.047 12.967-25.864 12.559-47.823 0-67.271 0-134.549 0-201.816-1.522-25.16-3.489-46.345-15.806-60.386-11.874-13.534-27.867-22.99-50.659-25.534-4.726 0-9.457 0-14.179 0-13.338 1.345-23.999 5.811-33.639 11.754-8.572 5.287-15.068 11.611-21.478 18.237-0.591 0.616-1.954 3.483-2.436 1.622-2.177-8.497-4.053-17.296-6.889-25.128-32.826 0.267-66.734-0.538-98.882 0.404-0.002 141.293-0.002 282.603-0.002 423.896zM1016.894 522.147c-12.007-0.946-11.829-16.719-12.157-30.395-0.267-11.358 0-22.809 0-30.395 0-37.756 0.002-82.954 0-121.579 0-17.685-2.507-46.029 8.108-52.682 4.337-2.725 13.607-2.112 16.613 0 5.004 3.514 5.774 13.15 6.487 24.317 1.897 30.004 0.805 62.187 0.809 91.993 0.002 28.852 0.887 63.353-0.404 91.184-0.432 9.28-1.818 20.658-6.481 24.723-3.224 2.807-9.314 3.19-12.157 2.835-0.267-0.039-0.544 0.014-0.809-0.002zM596.79 654.259c35.26 0 70.515 0 105.773 0 0.014-0.391 0.497-0.316 0.809-0.404 35.176-0.581 68.383-1.251 94.023-10.134 25.175-8.725 43.453-25.689 50.656-53.087 3.679-13.986 3.667-31.043 4.455-47.823 0.787-16.635 0.41-33.87 0.41-50.659-0.002-34.222 0-69.48 0-103.747-0.002-36.369 1.192-69.82-3.648-99.693-4.845-29.918-21.961-46.37-50.254-53.495-28.768-7.248-64.113-5.269-98.882-5.269-34.593 0-69.337-0.338-103.339 0.404 0 141.299 0 282.603 0 423.896zM707.025 580.497c0-92.674 0-185.335 0-278.005 11.577 0.045 25.717 1.722 29.581 9.32 3.913 7.69 4.602 17.701 5.269 29.177 0.616 10.623 0.809 21.967 0.809 32.826 0 54.807 0.858 117.694-0.41 171.016-0.283 11.966-0.787 23.398-5.269 29.177-5.063 6.534-19.776 7.802-29.177 7.294-0.002 0.958-1.105-0.151-0.809-0.809z" />
<glyph unicode="&#xe94c;" glyph-name="meetup" horiz-adv-x="1446" d="M0 481.988q0 37.743 2.155 113.234 25.88 8.628 51.764 8.628h19.414q18.333-24.802 43.139-75.49t33.431-65.785q2.155 7.551 8.628 39.36t10.784 45.833 11.862 39.36 16.717 43.677 21.031 33.431q30.196-5.393 49.606-5.393 6.472 0 11.862 1.077 25.88-58.233 49.066-175.78t41.518-167.154q-1.077 0-4.312 1.077l-3.234 1.077q-9.707 0-28.038-5.93t-23.724-7.010q-43.139 108.92-66.862 218.916-16.175-28.038-16.175-95.977t-11.862-94.899l-5.393 2.155q-8.628 0-23.724-2.155t-22.647-2.155h-19.414q-29.118 51.764-61.469 95.977-3.234-6.472-3.234-16.175t2.695-28.038 2.695-26.96l-1.077-12.939q-32.354-16.175-56.078-16.175-7.551 0-10.784 1.077-18.333 60.388-18.333 153.133zM382.837 400.029q0 29.118 8.628 62.008t30.196 61.469 50.683 28.578q10.784 0 30.196-5.393t24.802-6.472q9.707-43.139 9.707-87.352 0-30.196-6.472-59.31-12.939 4.312-40.981 4.853t-39.901 3.774q-5.393-21.57-5.393-39.901 0-22.647 10.784-39.901t32.354-17.255q9.707 0 28.038 5.393t28.038 5.393q18.333 0 24.802-15.097-45.294-17.255-88.432-17.255-49.606 0-73.331 32.354t-23.724 84.114zM445.387 430.221l8.628 1.077q3.234 0 8.628-2.155t7.551-2.155l7.551 3.234q2.155 15.097 2.155 23.724 0 19.414-5.393 43.139-23.724-26.96-29.118-66.862zM564.008 371.987q0 132.645 84.114 196.269 34.509-3.234 64.706-24.802-1.077-18.333-8.628-72.25-5.393-42.058-5.393-70.094v-15.097q-21.57-2.155-31.276-2.155-8.628 0-46.371 5.393-5.393-12.939-5.393-24.802 0-23.724 18.333-40.441t42.058-16.717q28.038 0 44.217 24.802 19.414-6.472 22.647-18.333-23.724-22.647-67.94-22.647-39.901 0-75.49 21.57t-35.586 59.31zM624.398 418.359q4.312-6.472 15.097-6.472h9.707q9.707 20.491 9.707 52.844 0 14.019-6.472 42.058-3.234-8.628-10.784-26.96t-12.4-32.893-4.853-28.578zM731.164 438.851q-2.155 28.038 24.802 28.038 6.472 0 19.414-1.077t18.333-1.077q3.234 16.175 3.234 33.431 0 31.276-8.091 93.28t-8.091 93.28q0 46.371 10.784 77.648 5.393-3.234 28.578-5.93t43.677-26.42q-6.472-28.038-6.472-72.25 0-21.57 4.312-87.352 2.155-37.743 2.155-65.785 0-21.57-1.077-36.662h6.472q7.551 0 9.707 6.472t2.155 13.479 4.312 7.010q8.628 0 19.954-9.168t24.263-23.186 16.175-17.255q-9.707-7.551-43.677-9.707t-41.518-4.312q-1.077-12.939-1.077-38.823 0-17.255 0.539-35.586t1.616-40.981 1.077-35.586q-8.628-1.077-24.802-2.155t-23.724-2.155v21.57q0 22.647-3.234 61.469-4.312 47.449-4.312 65.785-6.472 2.155-34.509 3.774t-40.981 10.246zM963.020 447.48q0 21.57 2.155 62.548 11.862-1.077 21.57-5.393t22.647-11.323 19.414-10.246l-1.077-29.118q0-63.627 9.707-125.095 20.491 7.551 33.431 24.802t17.793 44.755 5.93 45.294 2.155 47.989v11.862q3.234-1.077 9.707-1.077 21.57-2.155 52.844-26.96 0-3.234 0.539-10.246t0.539-10.246q0-16.175-4.312-32.354t-8.091-23.724-15.635-26.96-15.097-24.802q-16.175-12.939-36.662-45.294-22.647-7.551-40.981-7.551-76.57 0-76.57 153.133zM1178.703 331.010q7.551 6.472 25.88 10.784 0 3.234 1.077 9.707 4.312 37.743 7.551 60.929t13.479 63.627 23.724 64.167 38.283 42.599 57.156 18.873q36.662 0 81.957-25.88 18.333-39.901 18.333-80.88 0-71.174-50.146-128.329t-121.322-73.331q-2.155-34.509-2.155-51.764 0-78.725 19.414-126.173-8.628 2.155-39.901 2.155-16.175 0-23.724 2.155-9.707 22.647-17.793 103.527t-31.816 107.84zM1275.76 357.969q42.058 10.784 70.633 51.764t28.578 85.192q0 32.354-16.175 60.388-24.802-22.647-42.599-59.85t-24.802-64.706-15.635-72.791z" />
<glyph unicode="&#xe94d;" glyph-name="patreon" d="M512.001-36.159c-6.664 0-13.308 0.167-19.904 0.439h-198.879v474.193c0 120.441 97.629 218.128 218.070 218.128s218.071-97.684 218.071-218.128c0-120.437-97.629-218.070-218.071-218.070-44.033 0-85.033 13.088-119.316 35.532v-156.766c22.972-14.135 75.408-24.116 136.917-24.619 193.587 8.831 347.86 168.541 347.86 364.309 0 201.435-163.313 364.748-364.748 364.748s-364.748-163.313-364.748-364.748v-474.579h-110.267v474.581c0 262.349 212.668 475.017 475.015 475.017 262.349 0 475.017-212.668 475.017-475.017s-212.668-475.017-475.015-475.017zM496.702 74.494c5.066-0.209 10.18-0.382 15.297-0.382 5.387 0 10.734 0.151 16.066 0.382h-31.363z" />
<glyph unicode="&#xe94e;" glyph-name="teamspeak" horiz-adv-x="1037" d="M383.644 906.185c25.201 0 50.402 0 75.602 0 150.709-10.138 272.224-58.078 361.665-132.816 87.55-73.156 166.861-166.667 179.808-312.624 0-18.39 0-36.78 0-55.17-14.98-146.049-83.557-249.979-175.722-320.799-91.496-70.299-214.819-120.069-363.71-130.773-25.201 0-50.402 0-75.602 0-83.695 6.889-154.917 26.257-222.72 49.040 12.772 21.364 34.583 15.484 53.125 10.216 57.776-16.416 127.125-26.32 202.288-24.517 92.14 2.206 174.199 27.787 241.11 59.254 65.97 31.023 126.72 71.683 173.683 126.686 47.031 55.084 86.104 120.525 96.036 204.331 11.485 96.912-5.968 182.269-44.953 247.241-107.581 179.292-337.299 297.456-629.338 243.15-3.702-55.159-2.045-121.18-2.045-183.896 0-20.827-4.515-45.892 0-61.301 3.759-12.83 14.781-12.971 26.563-24.519 7.336-7.187 19.204-23.159 22.477-28.606 48.021-79.918 6.024-176.659-61.298-208.418-86.843-40.965-197.458 20.281-204.331 114.423 0 11.581 0 23.156 0 34.738 10.871 59.284 42.891 97.416 91.949 118.51 4.427 33.995 14.477 70.616 22.477 108.295 7.162 33.738 10.1 82.473 24.519 106.252 16.997 28.029 63.072 34.687 98.078 42.909 35.8 8.411 72.605 15.197 110.339 18.393zM73.061 532.259c-35.916-67.912 17.65-144.762 85.82-145.074 74.423-0.345 124.249 87.281 83.775 151.206-14.779 23.34-51.498 48.061-93.991 42.909-37.25-4.515-64.484-28.011-75.604-49.040zM487.85 109.298c2.513 20.118 9.939 34.042 10.218 53.125 0.139 9.428-5.298 21.079-4.087 30.65 1.345 10.597 14.275 16.552 16.345 28.606 1.199 6.963-5.508 16.659-4.087 24.519 1.597 8.819 13.379 13.83 14.305 22.477 1.704 15.929-18.037 23.64-16.345 38.822 10.964 24.333 63.887 13.746 69.47 46.995 3.158 18.795-30.749 59.093-42.907 75.602-7.829 10.634-16.755 21.424-26.563 34.738-7.466 10.136-22.008 27.609-22.477 36.777-0.868 16.939 17.32 30.539 20.432 42.909 9.752 38.767-12.173 78.729-26.562 112.384-20.955 49.018-46.648 92.15-79.688 128.729-17.69 19.584-36.084 35.735-53.125 53.128-0.376 1.738 0.796 1.927 2.042 2.042 1.657 0.391 2.037 2.049 4.087 2.045 142.422 1.468 251.553-31.303 339.188-89.905 82.587-55.227 158.516-137.419 167.551-261.542 9.022-123.942-53.93-214.7-122.6-273.803-62.205-53.541-142.875-95.656-245.199-108.296zM283.522 832.625c2.375 0.33 3.634-0.451 4.087-2.045 71.272-25.484 127.926-101.465 161.421-181.853 11.216-26.916 28.853-70.993 20.431-98.078-3.095-9.954-21.523-20.903-22.477-34.735-1.206-17.491 32.708-64.456 42.909-79.688 5.721-8.546 16.32-20.203 26.563-34.739 8.579-12.17 22.638-31.844 20.431-40.867-5.681-23.237-63.271-12.042-67.428-42.909-2.229-16.547 14.194-26.704 12.261-40.867-1.715-12.561-12.437-10.36-20.431-24.519 0.736-10.161 9.646-12.152 16.345-16.349-5.832-13.102-16.323-16.816-18.39-30.648-4.253-28.49 14.779-49.625 6.129-73.56-17.105-47.34-112.246-32.32-167.551-22.477 57.015 54.033 104.38 128.153 110.339 232.935 6.771 119.055-50.551 225.059-124.641 277.888 0 70.84 0 141.675 0 212.507z" />
<glyph unicode="&#xe94f;" glyph-name="viadeo" horiz-adv-x="1010" d="M86.645 312.395q0-139.774 96.035-244.367t247.219-104.593q150.233 0 246.269 104.593 96.035 102.691 96.035 244.367 0 74.166-25.673 138.823-38.034-23.771-80.822-32.329 20.919-48.493 20.919-108.396 0-72.264-34.23-135.020-35.181-62.756-94.134-96.035-58.952-34.23-128.364-34.23-71.313 0-129.315 34.23-59.903 35.181-93.183 96.035-35.181 61.805-35.181 135.020 0 111.249 76.068 192.071 76.068 78.92 181.611 78.92 48.493 0 93.183-18.066 3.803 37.083 25.673 81.773-54.198 19.968-118.856 19.968-152.135 0-252.925-112.2-90.33-101.74-90.33-240.564zM352.881 71.831l53.247-3.803q70.362 44.69 118.38 103.642t68.936 117.905 29.476 119.806q5.705 38.985 5.705 76.068 0 19.968-1.902 38.034-4.754 52.296-11.886 93.658t-14.738 65.133l-8.558 23.771q-20.919 64.657-41.362 113.15t-29.952 63.707l-10.459 16.164q37.083-19.017 59.903-45.641 21.869-27.574 26.624-50.395 3.803-19.017 3.803-37.083v-6.656q-0.951-20.919-5.705-33.28l-4.754-12.361q3.803-55.149 4.754-106.495 0-49.444-4.754-96.986-8.558-95.084-29.001-158.791t-47.067-115.528-54.674-81.297-51.821-48.968-38.985-27.099zM614.363 677.519q3.803 38.034 21.869 60.854l17.115 23.771q11.41 13.312 37.083 25.197t45.641 17.591l19.968 5.705q34.23 7.607 63.231 33.28t41.362 48.493l12.361 21.869q38.985-54.198 46.591-122.659 3.803-30.427 2.853-54.198 0-32.329-5.705-56.1l-10.459-42.788q-11.41-31.378-31.853-57.051t-34.706-35.181l-14.263-10.459q-32.329-19.017-63.707-19.017l-103.642 50.395q55.149 30.427 96.035 61.805t60.379 54.674 31.378 42.313 13.787 29.476l1.902 9.508q-17.115-38.034-46.116-69.412t-58.952-49.444-57.526-30.902-44.69-17.591l-17.115-4.754q-23.771 41.837-23.771 75.117 0 4.754 0.951 9.508z" />
<glyph unicode="&#xe950;" glyph-name="document-alt" horiz-adv-x="878" d="M810.296 712.653q14.857-14.857 25.47-40.327t10.613-46.694v-611.265q0-21.224-14.857-36.081t-36.081-14.857h-713.143q-21.224 0-36.081 14.857t-14.857 36.081v848.98q0 21.224 14.857 36.081t36.081 14.857h475.428q21.224 0 46.694-10.613t40.327-25.47zM574.704 842.123v-199.51h199.51q-5.306 15.387-11.673 21.755l-166.081 166.081q-6.367 6.367-21.755 11.673zM778.459 31.347v543.347h-220.733q-21.224 0-36.081 14.857t-14.857 36.081v220.733h-407.51v-815.020h679.184z" />
<glyph unicode="&#xe951;" glyph-name="document" horiz-adv-x="878" d="M574.704 642.612v250.449q11.673-7.429 19.102-14.857l216.49-216.49q7.429-7.429 14.857-19.102h-250.449zM506.786 625.633q0-21.224 14.857-36.081t36.081-14.857h288.653v-560.327q0-21.224-14.857-36.081t-36.081-14.857h-713.143q-21.224 0-36.081 14.857t-14.857 36.081v848.98q0 21.224 14.857 36.081t36.081 14.857h424.49v-288.653z" />
<glyph unicode="&#xe952;" glyph-name="android" horiz-adv-x="915" d="M327.522 731.754q9.845 0 16.921 7.076t7.076 16.921-7.076 16.921-16.921 7.076-16.614-7.076-6.769-16.921 6.769-16.921 16.614-7.076zM587.193 731.754q9.845 0 16.614 7.076t6.769 16.921-6.769 16.921-16.614 7.076-16.921-7.076-7.076-16.921 7.076-16.921 16.921-7.076zM87.543 618.533q25.844 0 44.304-18.46t18.46-44.304v-264.592q0-26.459-18.152-44.919t-44.612-18.46-44.919 18.46-18.46 44.919v264.592q0 25.844 18.46 44.304t44.919 18.46zM739.795 606.842v-409.811q0-28.306-19.691-47.995t-47.381-19.691h-46.15v-139.68q0-26.459-18.46-44.919t-44.919-18.46-44.919 18.46-18.46 44.919v139.68h-84.916v-139.68q0-26.459-18.46-44.919t-44.919-18.46q-25.844 0-44.304 18.46t-18.46 44.919l-0.615 139.68h-45.535q-28.306 0-47.995 19.691t-19.691 47.995v409.811h564.874zM597.038 856.051q65.841-33.844 105.221-94.453t39.381-132.604h-569.182q0 71.994 39.381 132.604t105.837 94.453l-43.688 80.608q-4.307 8 3.077 12.307 8 3.692 12.307-3.692l44.304-81.224q58.457 25.844 123.682 25.844t123.682-25.844l44.304 81.224q4.307 7.384 12.307 3.692 7.384-4.307 3.077-12.307zM890.551 555.769v-264.592q0-26.459-18.46-44.919t-44.919-18.46q-25.844 0-44.304 18.46t-18.46 44.919v264.592q0 26.459 18.46 44.612t44.304 18.152q26.459 0 44.919-18.152t18.46-44.612z" />
<glyph unicode="&#xe953;" glyph-name="linux" horiz-adv-x="1023" d="M452.214 716.332q-6.286-0.571-8.857-6t-4.857-5.429q-2.857-0.571-2.857 2.857 0 6.857 10.857 8.571h5.714zM501.928 708.332q-2.286-0.571-6.571 3.714t-10 2.571q13.714 6.286 18.286-1.143 1.714-3.429-1.714-5.143zM301.357 464.332q-2.286 0.571-3.429-1.714t-2.571-7.143-3.143-7.714-5.714-7.429q-4-5.714-0.571-6.857 2.286-0.571 7.143 4t7.143 10.286q0.571 1.714 1.143 4t1.143 3.429 0.857 2.571 0.286 2.286v1.714t-0.571 1.429-1.714 1.143zM789.928 259.189q0 10.286-31.429 24 2.286 8.571 4.286 15.714t2.857 14.857 1.714 12.286 0.286 12.857-0.571 11.143-2 12.571-2.286 11.714-2.857 14.286-3.143 15.143q-5.714 27.429-26.857 58.857t-41.143 42.857q13.714-11.429 32.571-47.429 49.714-92.571 30.857-158.857-6.286-22.857-28.571-24-17.714-2.286-22 10.571t-4.571 47.714-6.571 61.143q-5.143 22.286-11.143 39.429t-11.143 26-8.857 14-7.429 8.571-4.286 4q-8 35.429-17.714 58.857t-16.857 32-13.429 18.857-8.571 22.857q-2.286 12 3.429 30.571t2.571 28.286-25.429 14.286q-8.571 1.714-25.429 10.286t-20.286 9.143q-4.571 0.571-6.286 14.857t4.571 29.143 20.571 15.429q21.143 1.714 29.143-17.143t2.286-33.143q-6.286-10.857-1.143-15.143t17.143-0.286q7.429 2.286 7.429 20.571v21.143q-2.857 17.143-7.714 28.571t-12 17.429-13.429 8.571-15.429 4.286q-61.143-4.571-50.857-76.571 0-8.571-0.571-8.571-5.143 5.143-16.857 6t-18.857-0.286-8.857 2.857q0.571 32.571-9.143 51.429t-25.714 19.429q-15.429 0.571-23.714-15.714t-9.429-34q-0.571-8.571 2-21.143t7.429-21.429 8.857-7.714q5.714 1.714 9.143 8 2.286 5.143-4 4.571-4 0-8.857 8.286t-5.429 19.143q-0.571 12.571 5.143 21.143t19.429 8q9.714 0 15.429-12t5.429-22.286-0.857-12.571q-12.571-8.571-17.714-16.571-4.571-6.857-15.714-13.429t-11.714-7.143q-7.429-8-8.857-15.429t4.286-10.286q8-4.571 14.286-11.143t9.143-10.857 10.571-7.429 20.286-3.714q26.857-1.143 58.286 8.571 1.143 0.571 13.143 4t19.714 6 16.857 7.429 12 10q5.143 8 11.429 4.571 2.857-1.714 3.714-4.857t-1.714-6.857-9.429-5.429q-11.429-3.429-32.286-12.286t-26-11.143q-25.143-10.857-40-13.143-14.286-2.857-45.143 1.143-5.714 1.143-5.143-1.143t9.714-10.857q14.286-13.143 38.286-12.571 9.714 0.571 20.571 4t20.571 8 19.143 10 17.143 9.714 14 6.857 10 1.429 4.857-6.286q0-1.143-0.571-2.571t-2.286-2.857-3.429-2.571-4.857-2.857-5.143-2.571-5.714-2.857-5.429-2.571q-16-8-38.571-25.143t-38-24.571-28-0.571q-12 6.286-36 41.714-12.571 17.714-14.286 12.571-0.571-1.714-0.571-5.714 0-14.286-8.571-32.286t-16.857-31.714-12-33.143 6.571-36q-13.143-3.429-35.714-51.429t-27.143-80.571q-1.143-10.286-0.857-39.429t-3.143-33.714q-4.571-13.714-16.571-1.714-18.286 17.714-20.571 53.714-1.143 16 2.286 32 2.286 10.857-0.571 10.286l-2.286-2.857q-20.571-37.143 5.714-94.857 2.857-6.857 14.286-16t13.714-11.429q11.429-13.143 59.429-51.714t53.143-43.714q9.143-8.571 10-21.714t-8-24.571-26-13.143q4.571-8.571 16.571-25.429t16-30.857 4-40.286q26.286 13.714 4 52.571-2.286 4.571-6 9.143t-5.429 6.857-1.143 3.429q1.714 2.857 7.429 5.429t11.429-1.429q26.286-29.714 94.857-20.571 76 8.571 101.143 49.714 13.143 21.714 19.429 17.143 6.857-3.429 5.714-29.714-0.571-14.286-13.143-52.571-5.143-13.143-3.429-21.429t13.714-8.857q1.714 10.857 8.286 44t7.714 51.429q1.143 12-3.714 42t-4.286 55.429 13.143 40.286q8.571 10.286 29.143 10.286 0.571 21.143 19.714 30.286t41.429 6 34.286-12.857zM431.071 731.76q1.714 9.714-1.429 17.143t-6.571 8.571q-5.143 1.143-5.143-4 1.143-2.857 2.857-3.429 5.714 0 4-8.571-1.714-11.429 4.571-11.429 1.714 0 1.714 1.714zM670.5 619.189q-1.143 4.571-3.714 6.571t-7.429 2.857-8.286 3.143q-2.857 1.714-5.429 4.571t-4 4.571-3.143 3.714-2.286 2.286-2.286-0.857q-8-9.143 4-24.857t22.286-18q5.143-0.571 8.286 4.571t2 11.429zM568.786 740.903q0 6.286-2.857 11.143t-6.286 7.143-5.143 1.714q-8-0.571-4-4l2.286-1.143q8-2.286 10.286-17.714 0-1.714 4.571 1.143zM599.643 874.046q0 1.143-1.429 2.857t-5.143 4-5.429 3.429q-8.571 8.571-13.714 8.571-5.143-0.571-6.571-4.286t-0.571-7.429-0.286-7.143q-0.571-2.286-3.429-6t-3.429-5.143 1.714-4.857q2.286-1.714 4.571 0t6.286 5.143 8.571 5.143q0.571 0.571 5.143 0.571t8.571 1.143 5.143 4zM922.5 107.76q11.429-6.857 17.714-14t6.857-13.714-1.429-12.857-8.857-12.571-13.429-11.143-17.143-10.571-18-9.429-18.286-8.857-15.429-7.429q-21.714-10.857-48.857-32t-43.143-36.571q-9.714-9.143-38.857-11.143t-50.857 8.286q-10.286 5.143-16.857 13.429t-9.429 14.571-12.571 11.143-26.857 5.429q-25.143 0.571-74.286 0.571-10.857 0-32.571-0.857t-33.143-1.429q-25.143-0.571-45.429-8.571t-30.571-17.143-24.857-16.286-30.571-6.571q-16.571 0.571-63.429 17.714t-83.429 24.571q-10.857 2.286-29.143 5.429t-28.571 5.143-22.571 5.429-19.143 8.286-9.714 11.143q-5.714 13.143 4 38t10.286 31.143q0.571 9.143-2.286 22.857t-5.714 24.286-2.571 20.857 6 15.429q8 6.857 32.571 8t34.286 6.857q17.143 10.286 24 20t6.857 29.143q12-41.714-18.286-60.571-18.286-11.429-47.429-8.571-19.429 1.714-24.571-5.714-7.429-8.571 2.857-32.571 1.143-3.429 4.571-10.286t4.857-10.286 2.571-9.714 0.571-12.571q0-8.571-9.714-28t-8-27.429q1.714-9.714 21.143-14.857 11.429-3.429 48.286-10.571t56.857-11.714q13.714-3.429 42.286-12.571t47.143-13.143 31.714-2.286q24.571 3.429 36.857 16t13.143 27.429-4.286 33.429-10.857 29.714-11.429 20.857q-69.143 108.571-96.571 138.286-38.857 42.286-64.571 22.857-6.286-5.143-8.571 8.571-1.714 9.143-1.143 21.714 0.571 16.571 5.714 29.714t13.714 26.857 12.571 24q4.571 12 15.143 41.143t16.857 44.571 17.143 34.857 22.286 30.857q62.857 81.714 70.857 111.429-6.857 64-9.143 177.143-1.143 51.429 13.714 86.571t60.571 59.714q22.286 12 59.429 12 30.286 0.571 60.571-7.714t50.857-23.714q32.571-24 52.286-69.429t16.857-84.286q-2.857-54.286 17.143-122.286 19.429-64.571 76-124.571 31.429-33.714 56.857-93.143t34-109.143q4.571-28 2.857-48.286t-6.857-31.714-11.429-12.571q-5.714-1.143-13.429-10.857t-15.429-20.286-23.143-19.143-34.857-8q-10.286 0.571-18 2.857t-12.857 7.714-7.714 8.857-6.571 11.714-5.143 11.143q-12.571 21.143-23.429 17.143t-16-28 4-55.429q11.429-40 0.571-111.429-5.714-37.143 10.286-57.429t41.714-18.857 48.571 20.286q33.714 28 51.143 38t59.143 24.286q30.286 10.286 44 20.857t10.571 19.714-14.286 16.286-29.429 13.429q-18.857 6.286-28.286 27.429t-8.571 41.429 8.857 27.143q0.571-17.714 4.571-32.286t8.286-23.143 11.714-16.286 12-10.857 12.286-7.429 9.429-5.429z" />
<glyph unicode="&#xe954;" glyph-name="windows" d="M432.95 414.594v-343.385l-359.736 49.582v293.802h359.736zM432.95 806.506v-347.604h-359.736v298.022zM950.928 414.594v-414.594l-478.418 65.935v348.659h478.418zM950.928 877.715v-418.813h-478.418v352.878z" />
<glyph unicode="&#xe955;" glyph-name="apple" horiz-adv-x="1125" d="M991.185 203.167q-24-76.925-75.693-153.845-79.384-120.615-158.153-120.615-30.154 0-86.154 19.693-52.923 19.693-92.923 19.693-37.538 0-87.385-20.309-49.849-20.925-81.231-20.925-93.538 0-185.23 159.381-90.463 160.613-90.463 309.538 0 140.307 69.538 230.15 68.923 88.616 174.767 88.616 44.308 0 108.923-18.462 64.003-18.462 84.923-18.462 27.692 0 88 20.925 62.771 20.925 106.461 20.925 73.231 0 131.076-40 32-22.153 64.003-61.539-48.617-41.231-70.154-72.616-40-57.846-40-127.384 0-76.309 42.462-137.23t97.231-77.541zM759.802 925.010q0-37.538-17.846-83.692-18.462-46.154-57.231-84.923-33.231-33.231-66.461-44.308-22.769-6.771-64.003-10.461 1.846 91.695 48.001 158.153 45.539 65.846 153.845 91.079 0.615-1.846 1.539-6.771t1.539-6.771q0-2.462 0.308-6.155t0.308-6.155z" />
</font>
</defs>
</svg>
